<svg width="25" height="25" viewBox="0 0 25 25" fill="none" xmlns="http://www.w3.org/2000/svg">
<path d="M9.82987 21.1V19.33C6.82987 19.7 6.10987 17.47 6.10987 17.44C5.9314 16.9043 5.57954 16.4434 5.10987 16.13C4.83987 15.96 4.27987 15.58 4.43987 15.07C4.59987 14.56 5.15987 14.58 5.38987 14.57C5.82361 14.6195 6.23996 14.7689 6.6061 15.0067C6.97225 15.2444 7.2782 15.5639 7.49987 15.94C7.72543 16.3539 8.09973 16.6667 8.54711 16.8153C8.99448 16.9638 9.48156 16.9369 9.90987 16.74C9.96438 16.4722 10.0552 16.2132 10.1799 15.97C7.99987 15.58 5.49987 14.41 5.49987 10.22C5.48803 9.12278 5.87138 8.05792 6.57987 7.22001C6.2958 6.22797 6.36292 5.16829 6.76987 4.22001L6.85987 4.00001H7.06987C7.24987 3.94001 8.26987 3.73001 10.3499 5.06001C12.1196 4.62003 13.9701 4.62003 15.7399 5.06001C17.8099 3.68001 18.8199 3.89001 18.9999 4.00001L19.2099 4.07001L19.2899 4.27001C19.7018 5.21634 19.776 6.27552 19.4999 7.27001C20.206 8.10927 20.589 9.17323 20.5799 10.27C20.5799 14.46 18.0999 15.63 15.8899 16.01C16.1441 16.5294 16.2709 17.1019 16.2599 17.68C16.2599 18.68 16.2599 19.51 16.2599 20.07V21.14L9.82987 21.1ZM10.7599 18.19V20.19H15.2999V20C15.2999 19.44 15.2999 18.59 15.2999 17.61C15.3309 17.317 15.2968 17.0207 15.2 16.7424C15.1032 16.464 14.9461 16.2105 14.7399 16L13.8999 15.29L14.9999 15.17C17.2999 14.92 19.6499 14.17 19.6499 10.25C19.6728 9.28235 19.3135 8.34464 18.6499 7.64001L18.4499 7.42001L18.5599 7.14001C18.8225 6.40956 18.8225 5.61046 18.5599 4.88001C17.67 5.02143 16.8305 5.38612 16.1199 5.94001L15.9099 6.00001H15.6999C13.9606 5.53358 12.1291 5.53358 10.3899 6.00001H10.1799L9.99987 5.91001C9.28544 5.35609 8.44274 4.99149 7.54987 4.85001C7.28285 5.57624 7.28285 6.37378 7.54987 7.10001L7.67987 7.38001L7.46987 7.61001C6.80626 8.31464 6.44698 9.25236 6.46987 10.22C6.46987 14.11 8.81987 14.89 11.1099 15.15L12.1899 15.27L11.3699 15.97C11.0518 16.2812 10.8565 16.6966 10.8199 17.14V17.4L10.5799 17.51C9.92277 17.8557 9.15755 17.9343 8.44391 17.7293C7.73028 17.5244 7.12337 17.0517 6.74987 16.41C6.64059 16.2372 6.50951 16.0793 6.35987 15.94C6.63111 16.3027 6.84681 16.7038 6.99987 17.13C6.99987 17.23 7.60987 18.87 10.2099 18.31L10.7599 18.19Z" fill="white"/>
</svg>
