<svg width="25" height="25" viewBox="0 0 25 25" fill="none" xmlns="http://www.w3.org/2000/svg">
<path d="M21.0001 21.42H17.0001V15.42C17.0001 13.71 16.8001 12.9 15.6501 12.9C14.5001 12.9 14.0001 13.6 14.0001 15.36V21.42H9.56006V9.19001H13.8601V10C14.6706 9.32789 15.6974 8.97258 16.7501 9.00001C20.8701 9.00001 21.4201 11.95 21.4201 14.84V21.51L21.0001 21.42ZM18.0001 20.48H20.5601V14.75C20.5601 11.75 19.9401 9.85001 16.8301 9.85001C16.2504 9.82814 15.6755 9.96229 15.1654 10.2385C14.6553 10.5146 14.2286 10.9227 13.9301 11.42L13.8001 11.68H13.0001L12.9501 11.2V10.14H10.5001V20.48H13.0601V15.36C13.0601 14.44 13.0601 12 15.6301 12C17.9201 12 17.9201 14.25 17.9201 15.46L18.0001 20.48Z" fill="white"/>
<path d="M8.30011 21.42H3.86011V9.19995H8.30011V21.42ZM4.80011 20.48H7.36011V10.14H4.80011V20.48Z" fill="white"/>
<path d="M6.08004 8.60006C5.58361 8.60203 5.09775 8.45676 4.68389 8.1826C4.27003 7.90844 3.94676 7.51772 3.75496 7.05984C3.56316 6.60196 3.51145 6.09748 3.60636 5.61021C3.70127 5.12294 3.93854 4.67475 4.28816 4.32233C4.63779 3.9699 5.08407 3.72907 5.57057 3.63028C6.05708 3.53149 6.56194 3.57918 7.02134 3.76733C7.48073 3.95547 7.87402 4.27562 8.15147 4.68728C8.42891 5.09894 8.57806 5.58363 8.58004 6.08006C8.58136 6.40968 8.51774 6.73633 8.39281 7.04136C8.26788 7.34639 8.0841 7.62383 7.85195 7.85783C7.61981 8.09184 7.34384 8.27782 7.03982 8.40518C6.73579 8.53253 6.40966 8.59875 6.08004 8.60006ZM6.08004 4.52006C5.76868 4.51808 5.46376 4.60873 5.20405 4.78048C4.94434 4.95223 4.74156 5.19733 4.6215 5.48461C4.50143 5.7719 4.46949 6.0884 4.52975 6.39387C4.59001 6.69935 4.73975 6.98002 4.95991 7.20019C5.18008 7.42035 5.46075 7.57008 5.76622 7.63034C6.0717 7.6906 6.3882 7.65867 6.67549 7.5386C6.96277 7.41854 7.20787 7.21576 7.37962 6.95605C7.55137 6.69633 7.64202 6.39142 7.64004 6.08006C7.64004 5.66632 7.47568 5.26953 7.18313 4.97697C6.89057 4.68442 6.49378 4.52006 6.08004 4.52006Z" fill="white"/>
</svg>
