<svg width="25" height="25" viewBox="0 0 25 25" fill="none" xmlns="http://www.w3.org/2000/svg">
<path d="M21.0699 5.41995C20.9597 5.28581 20.8206 5.17834 20.663 5.1056C20.5054 5.03286 20.3334 4.99675 20.1599 4.99995C19.9439 5.00657 19.7308 5.05055 19.5299 5.12995L4.52988 10.85C3.72988 11.15 3.62988 11.61 3.62988 11.85C3.62988 12.09 3.76988 12.54 4.57988 12.85L7.67988 13.74L9.36988 18.54C9.4494 18.8373 9.62275 19.1011 9.86417 19.2921C10.1056 19.4831 10.4022 19.591 10.7099 19.6C11.1099 19.5873 11.491 19.427 11.7799 19.15L13.6999 17.38L16.4899 19.62C16.7698 19.8562 17.1236 19.9871 17.4899 19.99C17.8183 19.9775 18.1312 19.8475 18.3717 19.6235C18.6122 19.3995 18.7641 19.0966 18.7999 18.77L21.3099 6.64995C21.3644 6.44003 21.3712 6.22056 21.3296 6.00769C21.2881 5.79481 21.1993 5.59397 21.0699 5.41995ZM8.75988 13.54L14.7599 10.48L11.0299 14.48C10.9663 14.5433 10.9213 14.6228 10.8999 14.71L10.1799 17.63L8.75988 13.54ZM11.1199 18.35C11.0984 18.3761 11.071 18.3967 11.0399 18.41L11.7099 15.71L12.9299 16.71L11.1199 18.35ZM20.2899 6.43995L17.8399 18.56C17.8399 18.68 17.7399 18.95 17.5399 18.95C17.4137 18.9365 17.2949 18.8841 17.1999 18.8L14.0499 16.26L12.1699 14.74L17.5599 8.99995C17.6246 8.91272 17.6604 8.8074 17.6622 8.69878C17.6641 8.59017 17.6318 8.48371 17.57 8.39435C17.5083 8.305 17.42 8.23723 17.3178 8.20057C17.2155 8.16391 17.1044 8.1602 16.9999 8.18995L8.06988 12.73L4.91988 11.83L19.9199 6.10995C20.0018 6.07323 20.0901 6.05284 20.1799 6.04995C20.2158 6.03967 20.2539 6.03967 20.2899 6.04995C20.2899 6.04995 20.3299 6.22995 20.2899 6.43995Z" fill="white"/>
</svg>
