<svg width="25" height="25" viewBox="0 0 25 25" fill="none" xmlns="http://www.w3.org/2000/svg">
<path d="M9.39 21.3901C7.05021 21.3946 4.75873 20.7245 2.79 19.4601L1 18.3301L3.06 18.6001C4.72853 18.7795 6.41124 18.4296 7.87 17.6001C7.15752 17.3806 6.50794 16.9937 5.97558 16.4718C5.44322 15.9498 5.04356 15.3081 4.81 14.6001L4.55 13.8101L5.08 13.9301C4.53808 13.4971 4.10036 12.9479 3.79919 12.3231C3.49802 11.6982 3.34109 11.0137 3.34 10.3201V9.52006L4.04 9.86006L4.2 10.0001C3.68999 9.27387 3.39992 8.41616 3.36445 7.52948C3.32899 6.6428 3.54963 5.76467 4 5.00006L4.34 4.41006L4.81 5.00006C6.70506 7.32563 9.44575 8.80387 12.43 9.11006C12.43 8.97006 12.43 8.83006 12.43 8.68006C12.4294 7.77871 12.6931 6.89696 13.1884 6.1439C13.6837 5.39083 14.3889 4.79949 15.2168 4.44302C16.0447 4.08655 16.9589 3.98059 17.8463 4.13824C18.7338 4.2959 19.5556 4.71026 20.21 5.33006C20.999 5.15346 21.755 4.85308 22.45 4.44006L23.51 3.81006L23.11 5.00006C22.9681 5.45886 22.7519 5.89127 22.47 6.28006C22.66 6.22006 22.85 6.14006 23.04 6.06006L24.52 5.41006L23.62 6.75006C23.0742 7.56171 22.3985 8.27796 21.62 8.87006V9.17006C21.632 10.779 21.3238 12.3743 20.7133 13.8629C20.1028 15.3516 19.2022 16.7039 18.064 17.8412C16.9258 18.9784 15.5728 19.8779 14.0836 20.4872C12.5944 21.0964 10.9989 21.4034 9.39 21.3901ZM4.94 19.5401C6.3457 20.1439 7.86011 20.4536 9.39 20.4501C10.8793 20.4648 12.3567 20.1823 13.7355 19.6191C15.1143 19.0559 16.367 18.2234 17.4201 17.1702C18.4733 16.117 19.3058 14.8644 19.869 13.4855C20.4322 12.1067 20.7147 10.6294 20.7 9.14006C20.7 8.97006 20.7 8.80006 20.7 8.63006V8.37006L20.91 8.22006C21.2664 7.97982 21.601 7.70878 21.91 7.41006C21.5998 7.48296 21.2861 7.53971 20.97 7.58006L18.74 7.86006L20.6 6.71006C20.9796 6.49438 21.3181 6.21341 21.6 5.88006C21.1315 6.05416 20.65 6.19125 20.16 6.29006H19.91L19.73 6.10006C19.2268 5.56224 18.5735 5.18824 17.8549 5.02671C17.1364 4.86517 16.3858 4.92357 15.7009 5.19431C15.016 5.46504 14.4284 5.93559 14.0144 6.54477C13.6005 7.15394 13.3795 7.87356 13.38 8.61006C13.377 8.89262 13.4072 9.17455 13.47 9.45006L13.6 10.0501H12.98C9.76926 9.90418 6.74633 8.49516 4.57 6.13006C4.42284 6.52337 4.3483 6.94012 4.35 7.36006C4.35144 7.96523 4.50291 8.5606 4.79086 9.09287C5.07881 9.62515 5.49426 10.0777 6 10.4101L7.33 11.3101H5.73C5.28119 11.2977 4.83655 11.2202 4.41 11.0801C4.54647 11.7926 4.88939 12.4493 5.39611 12.9684C5.90283 13.4876 6.551 13.8463 7.26 14.0001L9.19 14.3901L7.29 14.9101C6.88202 14.9915 6.46547 15.0218 6.05 15.0001C6.36115 15.5573 6.813 16.0233 7.36046 16.3514C7.90792 16.6795 8.53185 16.8584 9.17 16.8701H10.49L9.49 17.6901C8.1791 18.7251 6.60124 19.3667 4.94 19.5401Z" fill="white"/>
</svg>
