<svg width="25" height="25" viewBox="0 0 25 25" fill="none" xmlns="http://www.w3.org/2000/svg">
<path d="M12.5 22.44C12.21 22.44 5.31005 22.44 3.50005 21.93C2.93898 21.7796 2.42737 21.4842 2.01663 21.0734C1.60588 20.6627 1.31046 20.1511 1.16005 19.59C0.811895 17.7471 0.637795 15.8755 0.640048 14C0.627748 12.1221 0.791801 10.2472 1.13005 8.40001C1.2768 7.83059 1.56999 7.30947 1.98049 6.88844C2.391 6.46742 2.90452 6.16113 3.47005 6.00001C5.29005 5.52001 12.21 5.51001 12.47 5.51001C12.73 5.51001 19.68 5.51001 21.47 6.02001C22.0295 6.17048 22.5398 6.4647 22.9503 6.87345C23.3608 7.2822 23.6572 7.79124 23.81 8.35001C24.1802 10.2105 24.3644 12.1031 24.36 14C24.3723 15.8779 24.2083 17.7528 23.87 19.6C23.727 20.1712 23.4351 20.6943 23.024 21.1159C22.613 21.5375 22.0975 21.8426 21.53 22C19.71 22.43 12.79 22.44 12.5 22.44ZM12.5 6.49001C12.43 6.49001 5.41005 6.49001 3.71005 6.95001C3.30292 7.0592 2.9312 7.27242 2.6314 7.56871C2.3316 7.86501 2.11402 8.2342 2.00005 8.64001C1.70032 10.4104 1.56308 12.2046 1.59005 14C1.56319 15.7921 1.70043 17.5829 2.00005 19.35C2.11553 19.7507 2.33428 20.1141 2.63439 20.4037C2.9345 20.6933 3.30544 20.8989 3.71005 21C5.43005 21.47 12.43 21.47 12.5 21.47C12.57 21.47 19.59 21.47 21.29 21.02C21.6947 20.9189 22.0656 20.7133 22.3657 20.4237C22.6658 20.1341 22.8846 19.7707 23 19.37C23.3002 17.5963 23.4375 15.7988 23.41 14C23.4469 12.2043 23.3096 10.4092 23 8.64001C22.8813 8.24206 22.6613 7.88174 22.3615 7.59428C22.0618 7.30682 21.6926 7.10206 21.29 7.00001C19.58 6.50001 12.57 6.49001 12.5 6.49001ZM9.76005 18.22V9.77001L17.1 14L9.76005 18.22ZM10.7 11.39V16.59L15.21 14L10.7 11.39Z" fill="white"/>
</svg>
