<svg width="24" height="24" viewBox="0 0 24 24" fill="none" xmlns="http://www.w3.org/2000/svg">
<g opacity="0.48">
<path d="M17.4942 15.1513C17.4281 15.1513 17.362 15.1271 17.3104 15.0782L14.2181 12.1772C14.1101 12.0761 14.1047 11.9058 14.2063 11.7978C14.3078 11.6887 14.4771 11.6838 14.5862 11.7859L17.6786 14.687C17.7866 14.788 17.792 14.9584 17.6904 15.0664C17.6372 15.1228 17.5663 15.1513 17.4942 15.1513Z" fill="white"/>
<path d="M7.17189 15.1513C7.10041 15.1513 7.02893 15.1228 6.97573 15.0664C6.87416 14.9584 6.87953 14.788 6.98755 14.687L10.081 11.7859C10.1895 11.6849 10.3599 11.6892 10.4609 11.7978C10.5625 11.9058 10.5571 12.0761 10.4491 12.1772L7.35569 15.0782C7.3041 15.1271 7.23799 15.1513 7.17189 15.1513Z" fill="white"/>
<path d="M19.3231 17.8486H5.34357C4.60299 17.8486 4 17.2462 4 16.5051V7.34357C4 6.60245 4.60299 6 5.34357 6H19.3231C20.0637 6 20.6667 6.60245 20.6667 7.34357V16.5051C20.6667 17.2462 20.0637 17.8486 19.3231 17.8486ZM5.34357 6.53743C4.89911 6.53743 4.53743 6.89911 4.53743 7.34357V16.5051C4.53743 16.9495 4.89911 17.3112 5.34357 17.3112H19.3231C19.7676 17.3112 20.1292 16.9495 20.1292 16.5051V7.34357C20.1292 6.89911 19.7676 6.53743 19.3231 6.53743H5.34357Z" fill="white"/>
<path d="M12.3333 13.2746C11.9759 13.2746 11.6186 13.1558 11.3466 12.9188L4.44606 6.89911C4.33428 6.80184 4.32246 6.63201 4.41973 6.51969C4.51808 6.40791 4.68737 6.3977 4.79915 6.49389L11.6997 12.5131C12.0431 12.8124 12.6235 12.8124 12.9664 12.5131L19.8584 6.50357C19.9696 6.40629 20.1389 6.41704 20.2378 6.52936C20.3351 6.64169 20.3238 6.81098 20.212 6.90879L13.32 12.9183C13.0476 13.1558 12.6907 13.2746 12.3333 13.2746Z" fill="white"/>
<path d="M17.4942 15.1513C17.4281 15.1513 17.362 15.1271 17.3104 15.0782L14.2181 12.1772C14.1101 12.0761 14.1047 11.9058 14.2063 11.7978C14.3078 11.6887 14.4771 11.6838 14.5862 11.7859L17.6786 14.687C17.7866 14.788 17.792 14.9584 17.6904 15.0664C17.6372 15.1228 17.5663 15.1513 17.4942 15.1513Z" stroke="white" stroke-width="0.2"/>
<path d="M7.17189 15.1513C7.10041 15.1513 7.02893 15.1228 6.97573 15.0664C6.87416 14.9584 6.87953 14.788 6.98755 14.687L10.081 11.7859C10.1895 11.6849 10.3599 11.6892 10.4609 11.7978C10.5625 11.9058 10.5571 12.0761 10.4491 12.1772L7.35569 15.0782C7.3041 15.1271 7.23799 15.1513 7.17189 15.1513Z" stroke="white" stroke-width="0.2"/>
<path d="M19.3231 17.8486H5.34357C4.60299 17.8486 4 17.2462 4 16.5051V7.34357C4 6.60245 4.60299 6 5.34357 6H19.3231C20.0637 6 20.6667 6.60245 20.6667 7.34357V16.5051C20.6667 17.2462 20.0637 17.8486 19.3231 17.8486ZM5.34357 6.53743C4.89911 6.53743 4.53743 6.89911 4.53743 7.34357V16.5051C4.53743 16.9495 4.89911 17.3112 5.34357 17.3112H19.3231C19.7676 17.3112 20.1292 16.9495 20.1292 16.5051V7.34357C20.1292 6.89911 19.7676 6.53743 19.3231 6.53743H5.34357Z" stroke="white" stroke-width="0.2"/>
<path d="M12.3333 13.2746C11.9759 13.2746 11.6186 13.1558 11.3466 12.9188L4.44606 6.89911C4.33428 6.80184 4.32246 6.63201 4.41973 6.51969C4.51808 6.40791 4.68737 6.3977 4.79915 6.49389L11.6997 12.5131C12.0431 12.8124 12.6235 12.8124 12.9664 12.5131L19.8584 6.50357C19.9696 6.40629 20.1389 6.41704 20.2378 6.52936C20.3351 6.64169 20.3238 6.81098 20.212 6.90879L13.32 12.9183C13.0476 13.1558 12.6907 13.2746 12.3333 13.2746Z" stroke="white" stroke-width="0.2"/>
</g>
</svg>
