<svg width="24" height="24" viewBox="0 0 24 24" fill="none" xmlns="http://www.w3.org/2000/svg">
<g opacity="0.48">
<path d="M16.7376 2.6665H7.17036C6.52499 2.6665 6 3.19153 6 3.83691V19.9828C6 20.6281 6.52503 21.1532 7.1704 21.1532H16.7376C17.3829 21.1532 17.908 20.6281 17.908 19.9828V3.83691C17.9079 3.19153 17.3829 2.6665 16.7376 2.6665ZM6.58649 5.60819H17.3215V17.8341H6.58649V5.60819ZM7.17036 3.25299H16.7376C17.0595 3.25299 17.3215 3.51492 17.3215 3.83691V5.21719H6.58649V3.83691C6.58649 3.51492 6.84842 3.25299 7.17036 3.25299ZM16.7376 20.5666H7.17036C6.84842 20.5666 6.58645 20.3047 6.58645 19.9827V18.225H17.3214V19.9827C17.3214 20.3047 17.0595 20.5666 16.7376 20.5666Z" fill="white"/>
<path d="M11.954 18.4842C11.4244 18.4842 10.9935 18.9151 10.9935 19.4447C10.9935 19.9743 11.4244 20.4052 11.954 20.4052C12.4835 20.4052 12.9144 19.9743 12.9144 19.4447C12.9144 18.9152 12.4836 18.4842 11.954 18.4842ZM11.954 20.0142C11.64 20.0142 11.3845 19.7587 11.3845 19.4447C11.3845 19.1307 11.64 18.8752 11.954 18.8752C12.268 18.8752 12.5234 19.1307 12.5234 19.4447C12.5234 19.7587 12.268 20.0142 11.954 20.0142Z" fill="white"/>
<path d="M10.6246 4.52939H13.2834C13.3914 4.52939 13.4789 4.44185 13.4789 4.3339C13.4789 4.22594 13.3914 4.1384 13.2834 4.1384H10.6246C10.5166 4.1384 10.4291 4.22594 10.4291 4.3339C10.4291 4.44185 10.5166 4.52939 10.6246 4.52939Z" fill="white"/>
<path d="M9.92093 4.52939C9.97215 4.52939 10.0226 4.50867 10.059 4.47231C10.0953 4.43556 10.1164 4.38551 10.1164 4.3339C10.1164 4.28229 10.0953 4.23224 10.059 4.19549C10.0225 4.15912 9.97211 4.1384 9.92093 4.1384C9.86932 4.1384 9.81923 4.15912 9.78252 4.19549C9.74616 4.23185 9.72543 4.28229 9.72543 4.3339C9.72543 4.38551 9.74616 4.43556 9.78252 4.47231C9.81888 4.50867 9.86932 4.52939 9.92093 4.52939Z" fill="white"/>
<path d="M16.7376 2.6665H7.17036C6.52499 2.6665 6 3.19153 6 3.83691V19.9828C6 20.6281 6.52503 21.1532 7.1704 21.1532H16.7376C17.3829 21.1532 17.908 20.6281 17.908 19.9828V3.83691C17.9079 3.19153 17.3829 2.6665 16.7376 2.6665ZM6.58649 5.60819H17.3215V17.8341H6.58649V5.60819ZM7.17036 3.25299H16.7376C17.0595 3.25299 17.3215 3.51492 17.3215 3.83691V5.21719H6.58649V3.83691C6.58649 3.51492 6.84842 3.25299 7.17036 3.25299ZM16.7376 20.5666H7.17036C6.84842 20.5666 6.58645 20.3047 6.58645 19.9827V18.225H17.3214V19.9827C17.3214 20.3047 17.0595 20.5666 16.7376 20.5666Z" stroke="white" stroke-width="0.1"/>
<path d="M11.954 18.4842C11.4244 18.4842 10.9935 18.9151 10.9935 19.4447C10.9935 19.9743 11.4244 20.4052 11.954 20.4052C12.4835 20.4052 12.9144 19.9743 12.9144 19.4447C12.9144 18.9152 12.4836 18.4842 11.954 18.4842ZM11.954 20.0142C11.64 20.0142 11.3845 19.7587 11.3845 19.4447C11.3845 19.1307 11.64 18.8752 11.954 18.8752C12.268 18.8752 12.5234 19.1307 12.5234 19.4447C12.5234 19.7587 12.268 20.0142 11.954 20.0142Z" stroke="white" stroke-width="0.1"/>
<path d="M10.6246 4.52939H13.2834C13.3914 4.52939 13.4789 4.44185 13.4789 4.3339C13.4789 4.22594 13.3914 4.1384 13.2834 4.1384H10.6246C10.5166 4.1384 10.4291 4.22594 10.4291 4.3339C10.4291 4.44185 10.5166 4.52939 10.6246 4.52939Z" stroke="white" stroke-width="0.1"/>
<path d="M9.92093 4.52939C9.97215 4.52939 10.0226 4.50867 10.059 4.47231C10.0953 4.43556 10.1164 4.38551 10.1164 4.3339C10.1164 4.28229 10.0953 4.23224 10.059 4.19549C10.0225 4.15912 9.97211 4.1384 9.92093 4.1384C9.86932 4.1384 9.81923 4.15912 9.78252 4.19549C9.74616 4.23185 9.72543 4.28229 9.72543 4.3339C9.72543 4.38551 9.74616 4.43556 9.78252 4.47231C9.81888 4.50867 9.86932 4.52939 9.92093 4.52939Z" stroke="white" stroke-width="0.1"/>
</g>
</svg>
