<svg width="204" height="30" fill="none" xmlns="http://www.w3.org/2000/svg"><path d="M11.582 22.315c-2.205 0-4.192-.476-5.952-1.428-1.77-.953-3.156-2.267-4.16-3.954C.486 15.225 0 13.29 0 11.147 0 8.994.486 7.08 1.47 5.393 2.474 3.705 3.86 2.39 5.63 1.439 7.4.487 9.388.01 11.582.01c2.225 0 4.233.477 5.992 1.429 1.77.952 3.136 2.266 4.12 3.954 1.004 1.687 1.51 3.601 1.51 5.754 0 2.153-.506 4.078-1.51 5.796-.983 1.687-2.35 3.002-4.12 3.954-1.76.952-3.757 1.418-5.992 1.418zm0-4.358c1.873 0 3.426-.62 4.647-1.873 1.221-1.252 1.832-2.898 1.832-4.937s-.61-3.684-1.832-4.937c-1.221-1.252-2.774-1.873-4.647-1.873-1.874 0-3.426.62-4.647 1.873-1.201 1.253-1.791 2.898-1.791 4.937 0 2.04.6 3.685 1.79 4.937 1.222 1.242 2.774 1.873 4.648 1.873zM39.558.01c2.122 0 4.016.466 5.672 1.387 1.687.922 3.001 2.226 3.954 3.913.952 1.687 1.428 3.633 1.428 5.837 0 2.205-.476 4.16-1.428 5.879-.953 1.687-2.267 2.991-3.954 3.912-1.656.922-3.55 1.387-5.672 1.387-2.298 0-4.223-.6-5.775-1.8-.456-.353-1.2-.052-1.2.517v8.29c0 .342-.28.621-.622.621h-3.86a.623.623 0 01-.621-.62V.87c0-.342.279-.621.62-.621h3.613c.341 0 .62.279.62.62v.487c0 .58.777.88 1.232.518A7.611 7.611 0 0135.428.776C36.691.27 38.058.01 39.558.01zm-.57 17.948c1.874 0 3.416-.621 4.607-1.874 1.22-1.252 1.831-2.898 1.831-4.937s-.61-3.684-1.831-4.937c-1.201-1.252-2.733-1.873-4.606-1.873-1.221 0-2.329.29-3.302.859-.983.548-1.75 1.335-2.329 2.37-.58 1.035-.859 2.225-.859 3.592 0 1.355.29 2.556.86 3.591a6.215 6.215 0 002.328 2.412c.973.517 2.07.796 3.302.796zM76.943 11.261c0 .238-.01.559-.042.942-.02.32-.29.57-.61.57H60.516c-.393 0-.683.351-.57.724a5.929 5.929 0 002.153 3.105c1.284.92 2.857 1.387 4.73 1.387 2.153 0 3.954-.632 5.424-1.905a.657.657 0 01.931.052l1.946 2.236a.6.6 0 010 .797c-.92.972-2.039 1.728-3.364 2.256-1.5.6-3.177.9-5.06.9-2.391 0-4.503-.476-6.325-1.428-1.821-.952-3.24-2.267-4.243-3.954-.983-1.718-1.47-3.643-1.47-5.796 0-2.122.476-4.026 1.428-5.713a10.399 10.399 0 014.037-3.995C61.852.487 63.777.01 65.93.01c2.122 0 4.016.477 5.672 1.429 1.687.921 2.991 2.246 3.912 3.954.952 1.687 1.429 3.643 1.429 5.868zM65.93 4.088c-1.635 0-3.022.487-4.16 1.47-.943.807-1.574 1.853-1.895 3.126-.093.372.197.704.58.704h10.93c.372 0 .672-.332.58-.704-.301-1.263-.922-2.308-1.864-3.136-1.118-.973-2.515-1.46-4.17-1.46zM94.207.01c2.742 0 4.947.808 6.613 2.412 1.656 1.604 2.484 3.985 2.484 7.142v11.86a.623.623 0 01-.621.622h-3.86a.623.623 0 01-.621-.621v-11.22c0-1.904-.445-3.332-1.346-4.285-.9-.983-2.173-1.47-3.83-1.47-1.873 0-3.363.57-4.45 1.719-1.087 1.107-1.635 2.732-1.635 4.854v10.392c0 .341-.28.62-.621.62h-3.86a.623.623 0 01-.622-.62V.87c0-.342.28-.621.621-.621h3.612c.342 0 .621.279.621.62v.487c0 .58.766.88 1.232.528A8.193 8.193 0 0189.88.776C91.164.27 92.602.01 94.207.01zM150.77.01c3.208 0 5.661.777 7.338 2.33 1.718 1.52 2.567 3.829 2.567 6.934v12.15c0 .342-.28.622-.621.622h-3.582a.605.605 0 01-.61-.61c0-.611-.911-.932-1.408-.58-.383.279-.817.527-1.283.734-1.139.487-2.526.735-4.161.735-1.635 0-3.064-.269-4.285-.817-1.221-.57-2.173-1.346-2.856-2.33-.653-1.003-.984-2.131-.984-3.384 0-1.956.725-3.519 2.163-4.688 1.47-1.2 3.768-1.79 6.894-1.79h5.299a.333.333 0 00.331-.332c0-1.521-.466-2.691-1.387-3.509-.9-.817-2.246-1.221-4.036-1.221-1.222 0-2.433.186-3.633.57a9.32 9.32 0 00-2.37 1.138c-.321.217-.787.134-.963-.218l-1.387-2.577a.599.599 0 01.176-.776c1.056-.724 2.287-1.283 3.695-1.687 1.604-.466 3.302-.694 5.103-.694zm-.704 18.6c1.283 0 2.411-.29 3.384-.86a4.85 4.85 0 002.081-2.421.54.54 0 00.041-.218v-1.79a.623.623 0 00-.621-.621h-4.637c-2.939 0-4.409.962-4.409 2.898 0 .92.373 1.656 1.097 2.204.745.538 1.76.808 3.064.808zM171.263 1.314c0 .621.921.932 1.397.539 1.397-1.139 3.302-1.75 5.734-1.843.341-.01.621.27.621.61V4.11c0 .393-.352.683-.745.642-.156-.01-.3-.021-.445-.021-1.988 0-3.54.58-4.648 1.75-1.117 1.138-1.676 2.804-1.676 4.977v9.947c0 .341-.28.62-.621.62h-3.861a.623.623 0 01-.621-.62V.869c0-.341.28-.62.621-.62h3.612c.342 0 .621.279.621.62v.445h.011zM204 11.261c0 .238-.01.559-.041.942a.612.612 0 01-.611.57h-15.774c-.393 0-.683.351-.569.724a5.928 5.928 0 002.153 3.105c1.273.92 2.857 1.387 4.73 1.387 2.153 0 3.954-.632 5.423-1.905a.657.657 0 01.932.052l1.946 2.236a.601.601 0 010 .797c-.921.972-2.039 1.728-3.364 2.256-1.491.6-3.178.9-5.061.9-2.391 0-4.503-.476-6.324-1.428-1.822-.952-3.24-2.267-4.244-3.954-.983-1.718-1.469-3.643-1.469-5.796 0-2.122.476-4.026 1.428-5.713a10.4 10.4 0 014.036-3.995C188.91.487 190.835.01 192.987.01c2.122 0 4.016.477 5.672 1.429 1.687.921 2.991 2.246 3.913 3.954C203.524 7.08 204 9.036 204 11.26zm-11.013-7.173c-1.635 0-3.022.487-4.16 1.47-.942.807-1.574 1.853-1.894 3.126-.094.372.196.704.579.704h10.92c.372 0 .672-.332.579-.704-.3-1.263-.921-2.308-1.863-3.136-1.118-.973-2.505-1.46-4.161-1.46z" fill="#fff"/><path d="M130.442.32c.228-.31.466-.32.797-.32l3.799.02c.507 0 1.055.477.879.984l-14.138 20.41c-.404.549-.89.497-1.221.497l-4.037-.02c-.3 0-.683-.487-.362-.953L130.442.321z" fill="#1BE6E6"/><path d="M121.448 20.907c.269.652.093 1.015-.197 1.015h-4.72a.731.731 0 01-.683-.508l-9.46-20.4c-.165-.507.197-1.014.683-1.014h4.047c.311 0 .58.207.704.507l9.626 20.4zM133.94 20.907c.269.652.093 1.015-.196 1.015h-4.989a.75.75 0 01-.683-.508l-9.791-20.4c-.176-.507.165-1.014.683-1.014h4.326a.72.72 0 01.683.507l9.967 20.4zM138.329 4.771c.362.808-.093 1.015-.393 1.015h-4.099c-.29 0-.776-.176-.921-.507l-2.36-4.265c-.321-.631-.073-1.014.435-1.014h4.046c.321 0 .756.176.922.507l2.37 4.264z" fill="#fff"/></svg>