<svg xmlns="http://www.w3.org/2000/svg" viewBox="0 0 60 60"><defs><style>.cls-1{fill:none;}.cls-2{fill:#6be3e4;}</style></defs><g id="Layer_2" data-name="Layer 2"><g id="Layer_1-2" data-name="Layer 1"><rect class="cls-1" width="60" height="60" rx="9.67"/><path class="cls-2" d="M30.21,51.69A21.69,21.69,0,1,1,51.89,30,21.71,21.71,0,0,1,30.21,51.69Zm0-41.88A20.19,20.19,0,1,0,50.39,30,20.22,20.22,0,0,0,30.21,9.81Z"/><rect class="cls-2" x="6.63" y="29.25" width="6.81" height="1.5"/><rect class="cls-2" x="46.56" y="29.25" width="6.81" height="1.5"/><rect class="cls-2" x="29.25" y="46.56" width="1.5" height="6.81"/><rect class="cls-2" x="29.25" y="6.63" width="1.5" height="6.81"/><path d="M27.57,20.29V28L21.49,24.6a10,10,0,0,1,6.08-4.31m1.5-1.74a11.45,11.45,0,0,0-9.61,6.64l9.61,5.31V18.55Z"/><path d="M20,29l7.61,4.2v6.43A10,10,0,0,1,19.92,30c0-.32,0-.64,0-.95M18.89,26.7A11.32,11.32,0,0,0,18.42,30,11.45,11.45,0,0,0,29.07,41.38V32.32L18.89,26.7Z"/><path d="M32.17,20.29A10,10,0,0,1,39.81,30a9.84,9.84,0,0,1-1.63,5.45,10.75,10.75,0,0,1-.84,1.11,9.9,9.9,0,0,1-5.17,3.13V20.29m-1.5-1.74V41.38a11.38,11.38,0,0,0,7.8-3.87,11.15,11.15,0,0,0,1-1.29A11.3,11.3,0,0,0,41.31,30,11.43,11.43,0,0,0,30.67,18.55Z"/></g></g></svg>