<svg xmlns="http://www.w3.org/2000/svg" viewBox="0 0 60 60"><defs><style>.cls-1{fill:none;}.cls-2{fill:#6be3e4;}.cls-3{stroke:#000;stroke-miterlimit:10;stroke-width:0.21px;}</style></defs><g id="Layer_2" data-name="Layer 2"><g id="Layer_1-2" data-name="Layer 1"><rect class="cls-1" width="60" height="60" rx="9.67"/><path class="cls-2" d="M47.48,34.6a18.23,18.23,0,0,0,0-9.2l-.07-.3,2.26-1.67-4.15-7.18-2.58,1.13-.22-.22a18,18,0,0,0-8-4.6l-.29-.08-.31-2.8h-8.3l-.31,2.8-.29.08a18,18,0,0,0-8,4.6l-.22.22-2.58-1.13-4.15,7.18,2.26,1.67-.07.3a18.23,18.23,0,0,0,0,9.2l.07.3-2.26,1.67,4.15,7.18,2.58-1.13.22.22a18,18,0,0,0,8,4.6l.29.08.31,2.8h8.3l.31-2.8.29-.08a18,18,0,0,0,8-4.6l.22-.22,2.58,1.13,4.15-7.18L47.41,34.9ZM47.66,37,44.88,41.8l-2.32-1-.37.4a16.39,16.39,0,0,1-8.6,5l-.54.12-.27,2.52H27.22L27,46.27l-.54-.12a16.39,16.39,0,0,1-8.6-5l-.37-.4-2.32,1L12.34,37l2-1.5L14.22,35a16.63,16.63,0,0,1,0-9.94l.16-.52-2-1.5,2.78-4.81,2.32,1,.37-.4a16.39,16.39,0,0,1,8.6-5l.54-.12.27-2.52h5.56l.27,2.52.54.12a16.39,16.39,0,0,1,8.6,5l.37.4,2.32-1L47.66,23l-2,1.5.16.52a16.63,16.63,0,0,1,0,9.94l-.16.52Z"/><polygon class="cls-3" points="24.53 27.22 23.44 26.15 19.61 30.05 23.52 33.87 24.59 32.77 21.78 30.03 24.53 27.22"/><polygon class="cls-3" points="35.47 27.22 38.22 30.03 35.41 32.77 36.48 33.87 40.38 30.05 36.56 26.15 35.47 27.22"/><rect class="cls-3" x="22.05" y="29.22" width="15.91" height="1.54" transform="translate(-5.52 53.18) rotate(-78.12)"/></g></g></svg>