<svg xmlns="http://www.w3.org/2000/svg" viewBox="0 0 60 60"><defs><style>.cls-1{fill:none;}.cls-2{fill:#6be3e4;}</style></defs><g id="Layer_2" data-name="Layer 2"><g id="Layer_1-2" data-name="Layer 1"><rect class="cls-1" width="60" height="60" rx="9.67"/><path d="M15.29,26h-1.5a4.52,4.52,0,0,1,4.51-4.51H42.91V23H18.3A3,3,0,0,0,15.29,26Z"/><path d="M48,40h-7.6a3,3,0,0,1,0-6.06H48Zm-7.6-4.56a1.53,1.53,0,0,0,0,3.06h6.1V35.43Z"/><polygon class="cls-2" points="24.69 26.02 23.19 26.02 23.19 22.22 19.88 19.09 19.88 17.26 21.38 17.26 21.38 18.44 24.69 21.57 24.69 26.02"/><rect class="cls-2" x="30.06" y="15.73" width="1.5" height="10.29"/><path class="cls-2" d="M20.63,18a3,3,0,1,1,3-3A3,3,0,0,1,20.63,18Zm0-4.41a1.46,1.46,0,0,0,0,2.91,1.46,1.46,0,1,0,0-2.91Z"/><polygon class="cls-2" points="38.63 26.02 37.13 26.02 37.13 21.57 40.43 18.44 40.43 17.26 41.93 17.26 41.93 19.09 38.63 22.22 38.63 26.02"/><path class="cls-2" d="M41.18,18a3,3,0,1,1,3-3A3,3,0,0,1,41.18,18Zm0-4.41a1.46,1.46,0,0,0,0,2.91,1.46,1.46,0,1,0,0-2.91Z"/><path class="cls-2" d="M30.81,15.8A3.77,3.77,0,1,1,34.58,12,3.78,3.78,0,0,1,30.81,15.8Zm0-6A2.27,2.27,0,1,0,33.08,12,2.28,2.28,0,0,0,30.81,9.76Z"/><path d="M43.34,49H18.48a4.69,4.69,0,0,1-4.69-4.68V25.29l.78,0H43.34A4.69,4.69,0,0,1,48,30V44.36A4.69,4.69,0,0,1,43.34,49ZM15.29,26.77V44.36a3.19,3.19,0,0,0,3.19,3.18H43.34a3.19,3.19,0,0,0,3.18-3.18V30a3.18,3.18,0,0,0-3.18-3.18Z"/></g></g></svg>