<svg xmlns="http://www.w3.org/2000/svg" viewBox="0 0 60 60"><defs><style>.cls-1{fill:none;}.cls-2{fill:#6be3e4;}</style></defs><g id="Layer_2" data-name="Layer 2"><g id="Layer_1-2" data-name="Layer 1"><rect class="cls-1" width="60" height="60" rx="9.67"/><rect class="cls-2" x="29.28" y="11.07" width="1.5" height="9.81"/><rect class="cls-2" x="35.25" y="14.66" width="1.5" height="6.22"/><rect class="cls-2" x="23.31" y="14.66" width="1.5" height="6.22"/><rect class="cls-2" x="41.11" y="31.75" width="9.81" height="1.5"/><rect class="cls-2" x="41.11" y="37.72" width="6.22" height="1.5"/><rect class="cls-2" x="41.11" y="25.78" width="6.22" height="1.5"/><rect class="cls-2" x="9.08" y="31.75" width="9.81" height="1.5"/><rect class="cls-2" x="12.67" y="37.72" width="6.22" height="1.5"/><rect class="cls-2" x="12.67" y="25.78" width="6.22" height="1.5"/><rect x="21.6" y="44.14" width="1.28" height="4.8"/><rect x="37.19" y="44.14" width="1.28" height="4.8"/><path d="M42.31,44.89H17.76V20.34H42.31Zm-23-1.5H40.81V21.84H19.26Z"/><rect x="29.28" y="25.84" width="1.5" height="4.92"/><rect x="33.9" y="33.85" width="1.5" height="4.87" transform="translate(-14.1 48.12) rotate(-59.97)"/><rect x="22.98" y="35.53" width="4.88" height="1.5" transform="translate(-14.71 17.53) rotate(-29.94)"/><path d="M30,37.28a3.65,3.65,0,0,1-3.15-1.85,3.47,3.47,0,0,1-.48-1.79,3.64,3.64,0,0,1,7.27,0A3.65,3.65,0,0,1,30,37.28Zm0-5.77a2.13,2.13,0,0,0-2.13,2.13,1.9,1.9,0,0,0,.28,1A2.13,2.13,0,1,0,30,31.51Z"/></g></g></svg>