<svg xmlns="http://www.w3.org/2000/svg" viewBox="0 0 60 60"><defs><style>.cls-1{fill:none;}.cls-2{fill:#6be3e4;}</style></defs><g id="Layer_2" data-name="Layer 2"><g id="Layer_1-2" data-name="Layer 1"><rect class="cls-1" width="60" height="60" rx="9.67"/><polygon points="38.73 26.75 35.22 26.75 35.22 25.25 37.23 25.25 37.23 23.28 38.73 23.28 38.73 26.75"/><path d="M20.62,31.21A9.82,9.82,0,0,1,20.55,30,9.45,9.45,0,0,1,38.4,25.66l-1.33.69a8,8,0,0,0-15,3.65,8.72,8.72,0,0,0,.06,1Z"/><polygon points="22.77 36.72 21.27 36.72 21.27 33.25 24.77 33.25 24.77 34.75 22.77 34.75 22.77 36.72"/><path d="M30,39.45a9.44,9.44,0,0,1-8.4-5.11l1.33-.69A8,8,0,0,0,38,30a8.43,8.43,0,0,0-.06-1l1.49-.2A9.82,9.82,0,0,1,39.45,30,9.46,9.46,0,0,1,30,39.45Z"/><rect class="cls-2" x="8.66" y="29.25" width="4.59" height="1.5"/><polygon class="cls-2" points="9.48 32.43 7.05 30 9.48 27.57 10.55 28.63 9.18 30 10.55 31.37 9.48 32.43"/><rect class="cls-2" x="15.78" y="14.24" width="1.5" height="4.59" transform="translate(-6.85 16.53) rotate(-45)"/><polygon class="cls-2" points="15.27 17.21 13.77 17.21 13.77 13.77 17.21 13.77 17.21 15.27 15.27 15.27 15.27 17.21"/><rect class="cls-2" x="29.25" y="8.66" width="1.5" height="4.59"/><polygon class="cls-2" points="28.63 10.54 27.57 9.48 30 7.05 32.43 9.48 31.37 10.54 30 9.18 28.63 10.54"/><rect class="cls-2" x="41.17" y="15.78" width="4.59" height="1.5" transform="translate(1.04 35.58) rotate(-45)"/><polygon class="cls-2" points="46.23 17.21 44.73 17.21 44.73 15.27 42.79 15.27 42.79 13.77 46.23 13.77 46.23 17.21"/><rect class="cls-2" x="46.75" y="29.25" width="4.59" height="1.5"/><polygon class="cls-2" points="50.52 32.43 49.45 31.37 50.83 30 49.45 28.63 50.52 27.57 52.95 30 50.52 32.43"/><rect class="cls-2" x="42.72" y="41.17" width="1.5" height="4.59" transform="translate(-18 43.46) rotate(-45)"/><polygon class="cls-2" points="46.23 46.23 42.79 46.23 42.79 44.73 44.73 44.73 44.73 42.79 46.23 42.79 46.23 46.23"/><rect class="cls-2" x="29.25" y="46.75" width="1.5" height="4.59"/><polygon class="cls-2" points="30 52.95 27.57 50.52 28.63 49.45 30 50.83 31.37 49.45 32.43 50.52 30 52.95"/><rect class="cls-2" x="14.24" y="42.72" width="4.59" height="1.5" transform="translate(-25.89 24.42) rotate(-45)"/><polygon class="cls-2" points="17.21 46.23 13.77 46.23 13.77 42.79 15.27 42.79 15.27 44.73 17.21 44.73 17.21 46.23"/></g></g></svg>