<svg xmlns="http://www.w3.org/2000/svg" viewBox="0 0 60 60"><defs><style>.cls-1{fill:none;}.cls-2{fill:#6be3e4;}</style></defs><g id="Layer_2" data-name="Layer 2"><g id="Layer_1-2" data-name="Layer 1"><rect class="cls-1" width="60" height="60" rx="9.67"/><path class="cls-2" d="M30,53.12,10,41.56V18.44L30,6.88,50,18.44V41.56ZM11.48,40.69,30,51.39l18.52-10.7V19.31L30,8.61,11.48,19.31Z"/><line x1="30" y1="16.38" x2="30" y2="44.08"/><rect x="29.25" y="16.38" width="1.5" height="27.7"/><path d="M25.23,23.55v12.9l-3.86-2.23V25.78l3.86-2.23m1.5-2.6-6.86,4V35.09l6.86,4V21Z"/><polygon points="39.53 25.6 33.59 22.17 33.59 23.51 39.53 26.81 39.53 25.6"/><polygon points="33.59 26.38 39.53 29.68 39.53 28.25 33.59 24.94 33.59 26.38"/><polygon points="33.59 29.24 39.53 32.55 39.53 31.11 33.59 27.81 33.59 29.24"/><polygon points="33.59 32.11 38.64 34.92 39.53 34.4 39.53 33.98 33.59 30.68 33.59 32.11"/><polygon points="33.59 34.98 36.11 36.38 37.37 35.65 33.59 33.55 33.59 34.98"/><polygon points="33.59 37.83 34.84 37.11 33.59 36.41 33.59 37.83"/></g></g></svg>