<svg width="72" height="72" viewBox="0 0 72 72" fill="none" xmlns="http://www.w3.org/2000/svg">
<g clip-path="url(#clip0)">
<g filter="url(#filter0_d)">
<path d="M56 0H16C7.16344 0 0 7.16344 0 16V56C0 64.8366 7.16344 72 16 72H56C64.8366 72 72 64.8366 72 56V16C72 7.16344 64.8366 0 56 0Z" fill="#C3002F"/>
</g>
</g>
<g filter="url(#filter1_d)">
<rect x="11.3228" y="27.1657" width="5.5747" height="7.877" rx="2.78735" fill="white"/>
<rect x="21.6768" y="26.3782" width="5.5747" height="14.9663" rx="2.78735" fill="white"/>
<rect x="32.0267" y="17.7132" width="5.5747" height="22.8433" rx="2.78735" fill="white"/>
<rect x="42.3807" y="27.9537" width="5.5747" height="16.5417" rx="2.78735" fill="white"/>
<rect x="28.7161" y="57.4387" width="5.25843" height="14.9663" rx="2.62921" transform="rotate(-90 28.7161 57.4387)" fill="white"/>
<rect x="52.7308" y="14.5627" width="5.5747" height="25.2064" rx="2.78735" fill="white"/>
</g>
<defs>
<filter id="filter0_d" x="-6" y="-2" width="84" height="84" filterUnits="userSpaceOnUse" color-interpolation-filters="sRGB">
<feFlood flood-opacity="0" result="BackgroundImageFix"/>
<feColorMatrix in="SourceAlpha" type="matrix" values="0 0 0 0 0 0 0 0 0 0 0 0 0 0 0 0 0 0 127 0"/>
<feOffset dy="4"/>
<feGaussianBlur stdDeviation="3"/>
<feColorMatrix type="matrix" values="0 0 0 0 0 0 0 0 0 0 0 0 0 0 0 0 0 0 0.09 0"/>
<feBlend mode="normal" in2="BackgroundImageFix" result="effect1_dropShadow"/>
<feBlend mode="normal" in="SourceGraphic" in2="effect1_dropShadow" result="shape"/>
</filter>
<filter id="filter1_d" x="7.27081" y="10.5107" width="60.4893" height="56.3826" filterUnits="userSpaceOnUse" color-interpolation-filters="sRGB">
<feFlood flood-opacity="0" result="BackgroundImageFix"/>
<feColorMatrix in="SourceAlpha" type="matrix" values="0 0 0 0 0 0 0 0 0 0 0 0 0 0 0 0 0 0 127 0"/>
<feOffset dx="2.7013" dy="2.7013"/>
<feGaussianBlur stdDeviation="3.37662"/>
<feColorMatrix type="matrix" values="0 0 0 0 0 0 0 0 0 0 0 0 0 0 0 0 0 0 0.2 0"/>
<feBlend mode="normal" in2="BackgroundImageFix" result="effect1_dropShadow"/>
<feBlend mode="normal" in="SourceGraphic" in2="effect1_dropShadow" result="shape"/>
</filter>
<clipPath id="clip0">
<rect width="72" height="72" fill="white"/>
</clipPath>
</defs>
</svg>
