<svg width="58" height="35" fill="none" xmlns="http://www.w3.org/2000/svg"><path d="M16.336 12.675c-.02.588.054 1.174.22 1.737.164.482.374.947.627 1.388.076.135.12.287.128.443a.712.712 0 01-.372.57l-1.16.817a.995.995 0 01-.51.175.808.808 0 01-.58-.28 4.265 4.265 0 01-.685-.898c-.22-.376-.418-.766-.592-1.165a7.153 7.153 0 01-2.528 1.999 7.12 7.12 0 01-3.145.682 5.243 5.243 0 01-3.852-1.4 4.98 4.98 0 01-1.416-3.73 5.057 5.057 0 011.706-3.951A7.032 7.032 0 018.91 7.558c.683 0 1.365.05 2.042.151.707.105 1.438.245 2.204.42V6.707a4.28 4.28 0 00-.905-3.1 4.452 4.452 0 00-3.144-.899c-.7.002-1.398.088-2.077.257-.707.166-1.401.384-2.077.653a4.628 4.628 0 01-.673.256c-.098.031-.199.05-.301.058-.267 0-.407-.21-.407-.617v-.956a1.17 1.17 0 01.14-.676 1.23 1.23 0 01.533-.408C5.026.898 5.842.605 6.683.4A11.92 11.92 0 019.688.027a6.939 6.939 0 015.047 1.574 6.42 6.42 0 011.6 4.768v6.306zm-7.832 2.95a6.375 6.375 0 001.996-.35 4.35 4.35 0 001.822-1.259c.301-.334.523-.733.65-1.166.136-.548.198-1.113.185-1.678v-.863a15.793 15.793 0 00-1.764-.326c-.6-.078-1.204-.117-1.81-.117a4.382 4.382 0 00-2.865.781 2.692 2.692 0 00-.928 2.203 2.799 2.799 0 00.707 2.052 2.77 2.77 0 002.007.723zm15.49 2.11a1.26 1.26 0 01-.743-.187 1.646 1.646 0 01-.406-.77L18.33 1.789a3.349 3.349 0 01-.174-.781.422.422 0 01.286-.45.416.416 0 01.19-.017h1.891c.266-.026.532.04.755.187.2.21.336.473.394.757l3.237 12.823 3.005-12.823c.037-.286.167-.553.371-.757.231-.148.505-.213.778-.187h1.554c.273-.025.546.041.778.187.2.207.33.472.37.757l3.03 12.987 3.34-12.987c.058-.284.195-.547.395-.757.223-.148.489-.213.754-.187h1.799a.404.404 0 01.449.277c.02.061.025.126.015.19.01.104.01.21 0 .314-.027.16-.07.316-.128.467l-4.64 14.99a1.47 1.47 0 01-.407.77c-.222.14-.482.205-.742.187h-1.706a1.156 1.156 0 01-.777-.21c-.201-.216-.33-.489-.372-.781L29.771 4.27l-2.97 12.473a1.52 1.52 0 01-.371.78c-.226.162-.502.236-.777.21h-1.66zm24.782.5c-1 .006-1.997-.107-2.97-.337a8.246 8.246 0 01-2.228-.781 1.36 1.36 0 01-.592-.536 1.336 1.336 0 01-.116-.548v-.98c0-.408.14-.606.441-.606.118.004.235.023.348.059l.488.21c.686.298 1.402.524 2.134.676.764.16 1.541.238 2.32.233a5.144 5.144 0 002.809-.641 2.036 2.036 0 00.997-1.83 1.862 1.862 0 00-.522-1.353 5.109 5.109 0 00-2.007-1.026l-2.808-.874a5.962 5.962 0 01-2.993-1.97c-.62-.81-.958-1.8-.963-2.821a4.318 4.318 0 01.522-2.145 5.088 5.088 0 011.392-1.597A6.127 6.127 0 0146.99.365a8.71 8.71 0 012.425-.338 9.85 9.85 0 011.3.082c.44 0 .858.128 1.253.221.394.094.754.199 1.16.304.275.092.542.205.8.338.222.12.419.283.58.478.115.193.171.416.163.64v.922c0 .408-.14.606-.43.606a1.884 1.884 0 01-.742-.233 8.932 8.932 0 00-3.724-.746 5.05 5.05 0 00-2.565.547 1.85 1.85 0 00-.904 1.726 1.837 1.837 0 00.568 1.375c.63.501 1.357.863 2.135 1.061l2.668.84a5.959 5.959 0 012.994 1.865c.606.802.922 1.79.893 2.797a4.939 4.939 0 01-1.914 3.964 6.164 6.164 0 01-2.135 1.084 9.32 9.32 0 01-2.738.338z" fill="#fff"/><path fill-rule="evenodd" clip-rule="evenodd" d="M52.419 27.783C46.073 32.493 36.86 35 28.994 35A42.408 42.408 0 01.244 24.006c-.592-.548 0-1.282.65-.862a57.51 57.51 0 0028.715 7.659 56.769 56.769 0 0021.893-4.512c1.068-.454 1.973.711.917 1.492z" fill="#fff"/><path fill-rule="evenodd" clip-rule="evenodd" d="M55.064 24.752c-.812-1.037-5.372-.49-7.414-.244-.615.07-.72-.478-.162-.863 3.643-2.565 9.595-1.83 10.291-.968.696.863-.186 6.867-3.597 9.734-.522.432-1.02.198-.789-.384.766-1.924 2.483-6.225 1.671-7.275z" fill="#fff"/></svg>