<svg width="107" height="30" fill="none" xmlns="http://www.w3.org/2000/svg"><path d="M18.317 28.398c5.087-.88 9.289-1.607 9.337-1.617l.088-.018-4.803-5.588c-2.641-3.073-4.802-5.6-4.802-5.614 0-.028 4.959-13.387 4.986-13.434.01-.016 3.385 5.683 8.181 13.816l8.228 13.95.062.107-15.263-.002-15.263-.002 9.25-1.598zm58.532-1.352c-2.323-.145-3.675-1.44-4.033-3.862-.095-.644-.095-.66-.105-4.844l-.01-4.049h2.057l.008 3.916c.007 3.53.012 3.944.046 4.192.14 1.008.42 1.685.894 2.172.38.389.824.617 1.44.738.29.057 1.116.057 1.38 0a3.073 3.073 0 001.565-.831c.503-.492.875-1.19 1.055-1.978l.06-.266.007-3.95.007-3.949h2.1v12.417H81.242v-.985c0-.67-.008-.982-.023-.977a.807.807 0 00-.12.177 4.177 4.177 0 01-1.607 1.575c-.784.422-1.57.572-2.643.505zm23.582-.01a5.531 5.531 0 01-2.39-.763c-1.487-.9-2.368-2.384-2.625-4.426-.09-.706-.1-1.655-.026-2.256.166-1.341.705-2.658 1.473-3.599a7.44 7.44 0 01.89-.87 5.595 5.595 0 012.269-1.06 7.536 7.536 0 011.841-.105c1.285.117 2.462.709 3.263 1.64.813.947 1.26 2.269 1.317 3.897.009.255.011.703.005.994l-.011.53-4.501.006-4.5.006v.196c0 .598.149 1.28.406 1.86.221.499.603 1.045.915 1.309a4.07 4.07 0 002.282.943c.317.03 1.128-.001 1.49-.056a6.399 6.399 0 002.811-1.134 6.35 6.35 0 01.198-.142c.023-.014.029.165.028.917v.934l-.213.129a7.56 7.56 0 01-3.016 1.023c-.325.039-1.517.056-1.906.027zm3.916-7.882c0-1.002-.431-2.114-1.042-2.688a2.891 2.891 0 00-1.589-.753 4.798 4.798 0 00-1.233.034c-.66.13-1.207.415-1.683.875a4.473 4.473 0 00-1.114 1.744 5.491 5.491 0 00-.215.858l-.015.105h6.891v-.175zm-61.045 7.57l3.396-8.727 3.386-8.699h2.177l.09.226c.276.692 6.78 17.21 6.78 17.218 0 .005-.522.01-1.158.01h-1.158l-.937-2.441-.938-2.442h-7.548l-.033.083a715.91 715.91 0 00-.89 2.441l-.857 2.358h-1.16c-.918.001-1.157-.005-1.15-.027zm10.95-6.718c0-.003-.631-1.676-1.402-3.717-1.443-3.818-1.523-4.047-1.637-4.66-.053-.288-.08-.296-.112-.033a5.983 5.983 0 01-.197.84c-.038.115-.687 1.858-1.443 3.874a593.86 593.86 0 00-1.375 3.685c0 .01 1.387.018 3.083.018 1.695 0 3.083-.003 3.083-.007zm5.578 6.428v-.318l3.76-5.056 3.76-5.057-3.404-.01-3.404-.012-.006-.845-.006-.845h9.848v.571l-3.76 5.084c-2.069 2.796-3.761 5.089-3.761 5.095 0 .005 1.672.01 3.715.01h3.716v1.701H59.83v-.318zm27.593.303c-.008-.008-.015-2.811-.015-6.23V14.29H89.463v1.282c0 .704.009 1.281.02 1.281.01 0 .06-.115.11-.256a4.421 4.421 0 011.149-1.73 3 3 0 011.623-.79c.177-.028.326-.033.678-.024.443.011.674.043.943.13l.085.026V16.297l-.243-.119a2.643 2.643 0 00-1.36-.267 2.513 2.513 0 00-.814.156c-.545.2-.986.552-1.295 1.034a5.925 5.925 0 00-.86 2.418c-.016.148-.026 1.352-.03 3.726l-.006 3.507H88.45c-.556 0-1.019-.006-1.027-.015zM0 26.694c0-.008 2.263-3.85 5.029-8.54l5.028-8.525 5.861-4.81C19.141 2.171 21.788.003 21.798 0c.01-.004-.032.1-.095.232L15.34 13.584 9.09 26.697l-4.545.006c-2.5.003-4.545-.001-4.545-.01z" fill="#fff"/></svg>