<svg width="40" height="30" viewBox="0 0 40 30" fill="none" xmlns="http://www.w3.org/2000/svg">
<path d="M26 8H8V2.23C8 1.93631 8.05801 1.64551 8.1707 1.3743C8.28339 1.10309 8.44855 0.856815 8.65668 0.649609C8.86482 0.442403 9.11183 0.278352 9.38354 0.166873C9.65526 0.0553951 9.94631 -0.00131355 10.24 3.45439e-06H23.74C24.0354 -0.00397039 24.3286 0.050776 24.6026 0.161064C24.8766 0.271351 25.126 0.434982 25.3363 0.642453C25.5465 0.849925 25.7135 1.0971 25.8274 1.36963C25.9414 1.64216 26 1.93461 26 2.23V8ZM10 6H24V2.23C24.0003 2.1971 23.9935 2.16452 23.9801 2.13446C23.9667 2.1044 23.947 2.07757 23.9224 2.05577C23.8978 2.03397 23.8687 2.01771 23.8373 2.00809C23.8058 1.99847 23.7726 1.99571 23.74 2H10.24C10.179 2 10.1205 2.02424 10.0774 2.06737C10.0342 2.1105 10.01 2.169 10.01 2.23L10 6Z" fill="black"/>
<path d="M31.76 30H2.23002C1.64546 30.0001 1.08422 29.7706 0.66715 29.3611C0.250075 28.9515 0.0105079 28.3945 2.24236e-05 27.81V8.24C-0.00129458 7.94631 0.0554141 7.65526 0.166892 7.38354C0.27837 7.11183 0.442422 6.86482 0.649628 6.65668C0.856834 6.44855 1.10311 6.28339 1.37432 6.1707C1.64553 6.05801 1.93633 6 2.23002 6H28.7L28.31 7.3C28.1713 7.73317 28.1005 8.18518 28.1 8.64C28.0922 9.63478 28.4164 10.6037 29.0214 11.3935C29.6264 12.1832 30.4775 12.7485 31.44 13C31.8468 13.1133 32.2678 13.1672 32.69 13.16H32.84L34 13V27.81C33.9895 28.3962 33.7486 28.9547 33.3293 29.3646C32.9101 29.7744 32.3463 30.0027 31.76 30ZM2.23002 8C2.19896 7.99997 2.16821 8.00623 2.13963 8.01841C2.11106 8.03059 2.08524 8.04843 2.06375 8.07086C2.04225 8.09329 2.02553 8.11984 2.01457 8.14891C2.00362 8.17798 1.99867 8.20896 2.00002 8.24V27.81C2.00002 27.871 2.02425 27.9295 2.06739 27.9726C2.11052 28.0158 2.16902 28.04 2.23002 28.04H31.76C31.821 28.04 31.8795 28.0158 31.9227 27.9726C31.9658 27.9295 31.99 27.871 31.99 27.81V15.12C31.6243 15.0891 31.2625 15.0221 30.91 14.92C29.5273 14.5547 28.3049 13.741 27.4345 12.6063C26.564 11.4716 26.0947 10.0801 26.1 8.65C26.1 8.44 26.1 8.22 26.1 8.01L2.23002 8Z" fill="black"/>
<path d="M22 19.19H12V13H22V19.19ZM14 17.19H20V15H14V17.19Z" fill="black"/>
<path d="M31.19 12.96H1V14.96H31.19V12.96Z" fill="black"/>
<path d="M32.6001 15.15C32.0289 15.1514 31.4602 15.074 30.9101 14.92C29.5275 14.5547 28.3051 13.741 27.4346 12.6063C26.5641 11.4716 26.0948 10.0801 26.1001 8.65C26.1019 7.99595 26.1997 7.3457 26.3901 6.72C26.7391 5.58666 27.3909 4.57014 28.2753 3.78019C29.1597 2.99025 30.2431 2.45687 31.4085 2.23765C32.5739 2.01843 33.777 2.12169 34.888 2.53629C35.999 2.95089 36.9757 3.66107 37.7125 4.59016C38.4494 5.51926 38.9185 6.63198 39.0692 7.80821C39.2199 8.98443 39.0464 10.1795 38.5676 11.2643C38.0887 12.3492 37.3226 13.2826 36.352 13.9639C35.3814 14.6451 34.2432 15.0484 33.0601 15.13C32.9075 15.1484 32.7538 15.1551 32.6001 15.15ZM32.6001 4.15C31.6402 4.14491 30.7043 4.44966 29.9314 5.01897C29.1585 5.58827 28.5899 6.39175 28.3101 7.31C28.1715 7.74316 28.1006 8.19518 28.1001 8.65C28.0946 9.64307 28.4198 10.6097 29.0246 11.3974C29.6294 12.1851 30.4793 12.749 31.4401 13C31.8469 13.1133 32.2679 13.1672 32.6901 13.16H32.8401C34.0336 13.1282 35.1656 12.6235 35.987 11.7571C36.8084 10.8907 37.252 9.73347 37.2201 8.54C37.1883 7.34652 36.6837 6.21458 35.8173 5.39317C34.9509 4.57176 33.7936 4.12817 32.6001 4.16V4.15Z" fill="black"/>
<path d="M35.1701 9.65H31.6001V5.42H33.6001V7.65H35.1701V9.65Z" fill="black"/>
</svg>
