<svg xmlns="http://www.w3.org/2000/svg" viewBox="0 0 40 40"><defs><style>.cls-1{fill:none;}.cls-2{fill:#6be3e4;}</style></defs><g id="Layer_2" data-name="Layer 2"><g id="Layer_1-2" data-name="Layer 1"><rect class="cls-1" width="40" height="40"/><path class="cls-2" d="M7.07,39.88,5.73,33.17H1.26A1.25,1.25,0,0,1,0,31.92V10.6A1.25,1.25,0,0,1,1.26,9.34H27v1.53H1.53V31.65H7L8.09,37.2l7.4-5.55H31.32V14.4h1.52V31.92a1.25,1.25,0,0,1-1.25,1.25H16Z"/><path d="M33.05.71,28.51,6.89,23.4,14l-1.22,6.16H6.69v1.46H21.56l7.18-3.34,5.66-5h0l1.2-1.07h0L40,8.23ZM23.82,19l.84-4.25,3,2.45Zm4.9-2.54L25.28,13.6l4.27-5.81,3.93,4.41Zm5.8-5.18L30.39,6.64l2.78-3.76L38,8.14Z"/></g></g></svg>