<svg width="118" height="29" fill="none" xmlns="http://www.w3.org/2000/svg"><path fill-rule="evenodd" clip-rule="evenodd" d="M55.654 18.336c0-.498-.099-.966-.295-1.405a3.735 3.735 0 00-.804-1.157 3.818 3.818 0 00-1.194-.788 3.724 3.724 0 00-1.468-.29 3.799 3.799 0 00-2.668 1.073 3.701 3.701 0 00-.798 1.156 3.437 3.437 0 00-.294 1.41c0 .498.098.968.294 1.41a3.701 3.701 0 001.988 1.94c.457.194.95.29 1.478.29.521 0 1.01-.097 1.468-.29a3.82 3.82 0 001.194-.788c.34-.332.607-.717.804-1.156.196-.44.294-.908.294-1.405zm-3.76-5.807c1.42 0 2.674.425 3.76 1.275V8.63c0-.311.105-.569.315-.773.211-.204.477-.305.799-.305.314 0 .58.101.798.305.218.204.326.462.326.773v9.706c0 1.617-.585 2.986-1.756 4.106-1.186 1.134-2.6 1.7-4.243 1.7-1.657 0-3.071-.566-4.242-1.7-1.172-1.134-1.757-2.503-1.757-4.106 0-1.604.585-2.973 1.757-4.107 1.17-1.133 2.585-1.7 4.242-1.7zm19.273 5.807c0 1.617-.586 2.986-1.757 4.106-1.186 1.134-2.6 1.7-4.243 1.7-1.657 0-3.07-.566-4.242-1.7-1.171-1.134-1.757-2.503-1.757-4.106 0-1.604.586-2.973 1.757-4.107 1.171-1.133 2.585-1.7 4.242-1.7 1.643 0 3.057.567 4.243 1.7a5.69 5.69 0 011.312 1.877c.29.685.438 1.428.445 2.23zm-6-3.64a3.8 3.8 0 00-2.668 1.073 3.703 3.703 0 00-.797 1.156 3.437 3.437 0 00-.295 1.41c0 .498.098.968.295 1.41a3.703 3.703 0 001.987 1.94c.457.194.95.29 1.478.29.522 0 1.01-.097 1.468-.29a3.821 3.821 0 001.195-.788c.339-.332.607-.717.803-1.156.197-.44.295-.908.295-1.405 0-.498-.099-.966-.295-1.405a3.737 3.737 0 00-.803-1.157 3.82 3.82 0 00-1.195-.788 3.724 3.724 0 00-1.468-.29zm16.403 6.16c.321 0 .587.101.798.305.21.204.316.462.316.773 0 .304-.118.57-.353.798-1.108.94-2.411 1.41-3.91 1.41-1.658 0-3.072-.566-4.243-1.7-1.172-1.134-1.757-2.503-1.757-4.106 0-1.604.585-2.973 1.757-4.107 1.171-1.133 2.585-1.7 4.242-1.7 1.507 0 2.81.47 3.91 1.41.258.221.386.494.386.82 0 .31-.105.57-.316.777a1.09 1.09 0 01-.798.311c-.271 0-.514-.083-.728-.249a4.142 4.142 0 00-1.147-.674 3.65 3.65 0 00-1.307-.228c-.521 0-1.01.095-1.468.285-.457.19-.857.45-1.2.778a3.616 3.616 0 00-.808 1.156 3.461 3.461 0 00-.295 1.42c0 .505.098.979.295 1.421.196.443.466.828.808 1.156a3.857 3.857 0 002.668 1.063c.471 0 .907-.074 1.307-.223.4-.148.779-.371 1.136-.668.2-.146.435-.222.707-.229zm2.41 2.198V8.64c0-.304.11-.561.328-.772.217-.211.483-.316.798-.316.307 0 .57.105.787.316.218.21.327.468.327.772v8.088l6.406-4.033c.179-.11.379-.166.6-.166.157 0 .304.027.44.083.135.055.253.133.353.233.1.1.18.216.241.348.06.13.091.27.091.414 0 .387-.143.674-.428.86l-4.49 2.821 4.608 5.02c.207.22.31.473.31.756 0 .145-.03.284-.09.415a1.2 1.2 0 01-.242.347c-.1.1-.218.178-.353.233a1.153 1.153 0 01-.44.083c-.3 0-.55-.093-.75-.28l-4.95-5.381-1.306.83v3.743c0 .297-.11.553-.327.767-.218.214-.48.321-.787.321-.315 0-.58-.107-.798-.32a1.04 1.04 0 01-.327-.768zm21.192-5.797a3.43 3.43 0 00-.541-1.042 3.798 3.798 0 00-.836-.809 3.88 3.88 0 00-3.422-.523c-.386.124-.74.299-1.061.523-.321.225-.6.495-.836.81-.235.314-.41.661-.525 1.041h7.221zm-.482 3.62c.321 0 .587.101.798.305.211.204.316.462.316.773 0 .304-.107.563-.321.777-1.107.94-2.414 1.41-3.921 1.41-1.657 0-3.071-.566-4.243-1.7-1.171-1.134-1.757-2.503-1.757-4.106 0-1.604.586-2.973 1.757-4.107 1.172-1.133 2.586-1.7 4.243-1.7 1.642 0 3.057.567 4.242 1.7a5.633 5.633 0 011.318 1.872c.293.688.439 1.433.439 2.235 0 .31-.109.568-.327.772a1.122 1.122 0 01-.798.306h-8.485c.122.38.3.728.536 1.042.236.315.513.584.83.809a3.9 3.9 0 002.245.71c.471 0 .903-.069 1.296-.207a3.58 3.58 0 001.093-.622 1.19 1.19 0 01.739-.27zm6.343-7.27v.208a6.192 6.192 0 011.746-.954 6.026 6.026 0 012.014-.332c.314 0 .652.02 1.013.062.36.042.692.116.996.223.303.107.555.254.755.44.2.187.3.43.3.726 0 .153-.03.294-.091.426a1.206 1.206 0 01-.241.347c-.1.1-.218.178-.354.233a1.15 1.15 0 01-.439.083c-.135 0-.293-.038-.471-.114a4.06 4.06 0 00-1.468-.259 3.79 3.79 0 00-1.468.285c-.457.19-.855.45-1.194.778a3.67 3.67 0 00-.804 1.156 3.467 3.467 0 00-.294 1.42v4.73c0 .296-.109.55-.327.761a1.09 1.09 0 01-.787.316c-.315 0-.581-.105-.799-.316a1.025 1.025 0 01-.326-.762v-9.457c0-.297.109-.551.326-.762.218-.21.484-.316.799-.316.307 0 .569.105.787.316.218.21.327.465.327.762zM40.662 11.066c-.935-.628-3.078-.863-4.753-.55-.195-1.569-1.09-2.942-2.649-4.159l-.896-.628-.623.903c-.78 1.177-1.169 2.825-1.052 4.395.04.55.234 1.53.818 2.394-.545.314-1.675.706-3.155.706H.187l-.078.314c-.272 1.57-.272 6.475 2.922 10.242C5.446 27.548 9.031 29 13.744 29c10.206 0 17.763-4.748 21.308-13.342 1.403.039 4.402 0 5.921-2.944.04-.078.117-.235.39-.824l.156-.314-.857-.51zM22.703 0h-4.285v3.924h4.285V0zm0 4.71h-4.285v3.923h4.285V4.71zm-5.064 0h-4.285v3.923h4.285V4.71zm-5.064 0H8.29v3.923h4.285V4.71zM7.511 9.417H3.226v3.924H7.51V9.418zm5.064 0H8.29v3.924h4.285V9.418zm5.064 0h-4.285v3.924h4.285V9.418zm5.064 0h-4.285v3.924h4.285V9.418zm5.064 0h-4.285v3.924h4.285V9.418z" fill="#fff"/></svg>