<svg width="170" height="32" fill="none" xmlns="http://www.w3.org/2000/svg"><path d="M99.406 13.758c0-6.477 4.615-11.372 10.66-11.372a9.242 9.242 0 014.145.888 9.751 9.751 0 013.393 2.669l-1.834 1.876c-1.422-1.885-3.355-2.77-5.704-2.77-4.327 0-7.961 3.344-7.961 8.7 0 5.355 3.642 8.698 7.961 8.698a7.919 7.919 0 003.482-.846 8.367 8.367 0 002.822-2.317l1.834 1.949a10.62 10.62 0 01-3.662 2.9 10.064 10.064 0 01-4.479.99c-6.045 0-10.66-4.895-10.66-11.371l.003.006zm20.871 10.9h2.636V2.872h-2.636v21.784zm16.421-7.452c0-3.406-2.235-5.382-4.587-5.382-2.351 0-4.586 1.976-4.586 5.382 0 3.407 2.235 5.383 4.586 5.383 2.352 0 4.587-1.976 4.587-5.383zm2.636 0c0 4.532-3.009 7.938-7.223 7.938s-7.222-3.406-7.222-7.938c0-4.53 3.008-7.938 7.222-7.938s7.217 3.398 7.217 7.926l.006.012zm11.914 7.451v-2.08h-.114a5.5 5.5 0 01-1.918 1.865 5.142 5.142 0 01-2.524.69c-3.614 0-5.374-2.58-5.374-6.263V9.747h2.639v8.665c0 3.1 1.462 4.165 3.466 4.165 2.292 0 3.697-2.343 3.697-4.622V9.747h2.636v14.91h-2.523.015zm16.207-7.45c0-3.407-2.121-5.383-4.473-5.383-2.351 0-4.469 2.036-4.469 5.382 0 3.347 2.121 5.383 4.469 5.383 2.349 0 4.496-1.988 4.496-5.395l-.023.012zm-11.555-.013c0-4.56 3.127-7.938 6.676-7.938 2.235 0 3.981 1.188 4.788 2.556h.114l-.114-2.068V2.873H170v21.784h-2.522v-2.08h-.114c-.802 1.368-2.559 2.555-4.788 2.555-3.552 0-6.676-3.376-6.676-7.938zM0 12.414C0 5.57 5.44 0 11.908 0a10.65 10.65 0 014.349.853 11.15 11.15 0 013.695 2.57l-2.274 2.405c-1.551-1.582-3.63-2.451-5.784-2.42a8.025 8.025 0 00-3.247.689 8.412 8.412 0 00-2.744 1.96 8.965 8.965 0 00-1.817 2.928 9.355 9.355 0 00-.608 3.443 9.356 9.356 0 00.608 3.442 8.963 8.963 0 001.817 2.928 8.41 8.41 0 002.744 1.96 8.026 8.026 0 003.247.69c3.062 0 4.808-1.302 5.926-2.484.915-.968 1.518-2.36 1.746-4.266h-7.678v-3.407h10.805c.12.694.178 1.399.171 2.105 0 2.543-.66 5.692-2.778 7.932-2.061 2.27-4.694 3.482-8.186 3.482C5.44 24.823 0 19.245 0 12.414zm31.593 9.26c-2.291 0-4.265-1.996-4.265-4.843 0-2.848 1.976-4.844 4.265-4.844 2.29 0 4.265 1.966 4.265 4.844 0 2.877-1.976 4.843-4.265 4.843zm0-12.836c-4.177.003-7.586 3.362-7.586 8.002 0 2.127.8 4.168 2.222 5.672 1.423 1.505 3.352 2.35 5.364 2.35s3.942-.845 5.365-2.35c1.422-1.504 2.222-3.545 2.222-5.672 0-4.63-3.413-7.993-7.587-7.993v-.009zm16.55 12.836c-2.29 0-4.266-1.996-4.266-4.843 0-2.848 1.976-4.844 4.265-4.844 2.289 0 4.265 1.966 4.265 4.844 0 2.877-1.976 4.843-4.265 4.843zm0-12.836c-4.18 0-7.587 3.36-7.587 7.993-.001 2.128.797 4.169 2.22 5.675 1.421 1.505 3.35 2.352 5.363 2.353 2.013 0 3.943-.843 5.367-2.347 1.423-1.504 2.224-3.544 2.225-5.672 0-4.63-3.412-7.993-7.586-7.993l-.003-.009zm16.505 12.836c-2.289 0-4.208-2.03-4.208-4.81 0-2.782 1.92-4.874 4.208-4.874 2.29 0 4.035 2.06 4.035 4.874 0 2.814-1.774 4.81-4.035 4.81zm3.808-12.351v1.301h-.114c-.745-.938-2.175-1.786-3.981-1.786-3.779 0-7.242 3.512-7.242 8.023 0 4.51 3.463 7.962 7.242 7.962 1.803 0 3.236-.848 3.98-1.804h.115v1.151c0 3.058-1.547 4.69-4.035 4.69-2.033 0-3.293-1.542-3.808-2.844l-2.891 1.26a7.542 7.542 0 002.667 3.444A6.925 6.925 0 0064.42 32c3.892 0 7.185-2.42 7.185-8.323V9.323h-3.15zm5.439 15.016h3.321V.849h-3.321v23.49zm12.167-12.41c1.317 0 2.434.698 2.806 1.696l-6.755 2.968a4.618 4.618 0 01.219-1.715c.18-.55.463-1.058.83-1.492a4.174 4.174 0 011.312-1.035 3.964 3.964 0 011.588-.419v-.002zm.259 9.751c-1.69 0-2.892-.817-3.665-2.42l10.105-4.42-.344-.902c-.628-1.786-2.559-5.085-6.469-5.085s-7.131 3.227-7.131 7.987c0 4.48 3.207 7.992 7.5 7.992a7.194 7.194 0 003.573-.931 7.686 7.686 0 002.726-2.611l-2.576-1.804c-.853 1.332-2.033 2.21-3.722 2.21" fill="#fff"/></svg>