<svg width="1600" height="900" viewBox="0 0 1600 900" fill="none" xmlns="http://www.w3.org/2000/svg">
<rect width="1600" height="900" fill="#0030AE"/>
<mask id="mask0" mask-type="alpha" maskUnits="userSpaceOnUse" x="0" y="0" width="1600" height="900">
<rect width="1600" height="900" fill="#0030AE"/>
</mask>
<g mask="url(#mask0)">
<g opacity="0.48">
<path d="M760.683 887.867L1527.29 2224.86C1536.27 2240.82 1553.24 2250.8 1569.21 2249.8L3100.43 2250.8C3138.36 2250.8 3161.32 2210.89 3143.35 2175.97L2388.72 840.972C2379.74 825.008 2362.77 815.031 2346.8 816.029L801.608 815.031C762.679 814.033 739.721 854.941 760.683 887.867Z" stroke="#26CAD3" stroke-miterlimit="10" stroke-linecap="round" stroke-dasharray="12.18 12.18"/>
<path d="M822.57 781.108L1590.17 2119.09C1599.16 2135.06 1616.13 2145.04 1632.1 2144.04L3162.32 2145.04C3200.25 2145.04 3223.21 2105.13 3205.24 2070.2L2449.61 734.213C2440.63 718.249 2423.66 708.272 2407.69 709.27L864.494 707.274C825.565 705.278 801.608 747.184 822.57 781.108Z" stroke="#26CAD3" stroke-miterlimit="10" stroke-linecap="round"/>
<path d="M757.688 840.973L822.57 730.222" stroke="#26CAD3" stroke-miterlimit="10" stroke-linecap="round"/>
<path d="M668.85 603.507L1435.46 1940.5C1444.44 1956.46 1461.41 1966.44 1477.38 1965.44L3008.6 1966.44C3046.53 1966.44 3069.49 1926.53 3051.52 1891.61L2296.89 556.613C2287.91 540.649 2270.94 530.671 2254.97 531.669L710.774 530.671C671.844 529.674 647.888 569.584 668.85 603.507Z" stroke="#26CAD3" stroke-miterlimit="10" stroke-linecap="round"/>
<path d="M730.737 496.748L1498.34 1834.73C1507.33 1850.7 1524.29 1860.68 1540.27 1859.68L3070.48 1860.68C3108.41 1860.68 3131.37 1820.77 3113.41 1785.84L2359.78 448.856C2350.79 432.892 2333.82 422.914 2317.85 423.912L774.657 421.917C734.73 420.919 709.775 462.824 730.737 496.748Z" stroke="#26CAD3" stroke-miterlimit="10" stroke-linecap="round"/>
<path d="M665.855 555.615L730.737 444.865" stroke="#26CAD3" stroke-miterlimit="10" stroke-linecap="round"/>
<path d="M899.431 435.885L1666.04 1772.87C1675.02 1788.84 1691.99 1798.82 1707.96 1797.82L3239.18 1798.82C3277.11 1798.82 3300.07 1758.91 3282.1 1723.98L2528.47 387.993C2519.49 372.029 2502.52 362.052 2486.55 363.049H941.354C901.427 361.054 878.469 401.962 899.431 435.885Z" stroke="#26CAD3" stroke-miterlimit="10" stroke-linecap="round"/>
<path d="M961.318 328.128L1728.92 1666.11C1737.91 1682.08 1754.88 1692.06 1770.85 1691.06L3301.06 1692.06C3339 1692.06 3361.95 1652.15 3343.99 1617.22L2590.36 281.234C2581.37 265.27 2564.4 255.292 2548.43 256.29L1004.24 254.294C965.311 252.299 940.356 295.202 961.318 328.128Z" stroke="#26CAD3" stroke-miterlimit="10" stroke-linecap="round"/>
<path d="M896.436 387.994L961.318 277.243" stroke="#26CAD3" stroke-miterlimit="10" stroke-linecap="round"/>
<path d="M731.736 36.7845L1498.34 1373.77C1507.33 1389.74 1524.29 1399.71 1540.27 1398.72L3071.48 1399.71C3109.41 1399.71 3132.37 1359.8 3114.4 1324.88L2361.77 -10.1099C2352.79 -26.074 2335.82 -36.0515 2319.85 -35.0537L774.658 -36.0515C734.73 -37.0492 710.774 2.86086 731.736 36.7845Z" stroke="#26CAD3" stroke-miterlimit="10" stroke-linecap="round" stroke-dasharray="12.18 12.18"/>
<path d="M794.621 -69.9753L1562.23 1268.01C1571.21 1283.98 1588.18 1293.95 1604.15 1292.96L3134.37 1293.95C3172.3 1293.95 3195.26 1254.04 3177.29 1219.12L2422.66 -117.867C2413.68 -133.831 2396.71 -143.809 2380.74 -142.811L837.543 -144.807C797.616 -145.804 773.659 -103.899 794.621 -69.9753Z" stroke="#26CAD3" stroke-miterlimit="10" stroke-linecap="round"/>
<path d="M1062.14 -72.9683L1828.74 1264.02C1837.73 1279.98 1854.69 1289.96 1870.67 1288.96L3401.88 1289.96C3439.81 1289.96 3462.77 1250.05 3444.8 1215.13L2691.17 -119.863C2682.19 -135.827 2665.22 -145.804 2649.25 -144.807L1104.06 -145.804C1064.13 -147.8 1041.17 -106.892 1062.14 -72.9683Z" stroke="#26CAD3" stroke-miterlimit="10" stroke-linecap="round"/>
<path d="M1124.02 -180.726L1891.63 1157.26C1900.61 1173.23 1917.58 1183.2 1933.55 1182.2L3463.77 1183.2C3501.7 1183.2 3524.66 1143.29 3506.69 1108.37L2752.06 -227.62C2743.08 -243.584 2726.11 -253.562 2710.14 -252.564L1166.94 -254.559C1127.02 -256.555 1103.06 -213.651 1124.02 -180.726Z" stroke="#26CAD3" stroke-miterlimit="10" stroke-linecap="round" stroke-dasharray="12.18 12.18"/>
<path d="M1291.72 -241.588L2058.32 1095.4C2067.31 1111.36 2084.28 1121.34 2100.25 1120.34L3631.46 1121.34C3669.39 1121.34 3692.35 1081.43 3674.39 1046.51L2921.75 -288.482C2912.77 -304.447 2895.8 -314.424 2879.83 -313.426H1334.64C1294.71 -315.422 1270.76 -274.514 1291.72 -241.588Z" stroke="#26CAD3" stroke-miterlimit="10" stroke-linecap="round" stroke-dasharray="12.18 12.18"/>
<path d="M1353.6 -348.348L2122.21 989.639C2131.19 1005.6 2148.16 1015.58 2164.13 1014.58L3694.35 1015.58C3732.28 1015.58 3755.24 975.67 3737.27 940.749L2982.64 -396.24C2973.66 -412.204 2956.69 -422.182 2940.72 -421.184L1397.53 -423.179C1357.6 -424.177 1333.64 -382.271 1353.6 -348.348Z" stroke="#26CAD3" stroke-miterlimit="10" stroke-linecap="round"/>
</g>
<rect opacity="0.3" width="1600" height="845" transform="matrix(1 0 0 -1 0 900)" fill="url(#paint0_linear)"/>
</g>
<defs>
<linearGradient id="paint0_linear" x1="1659.5" y1="-38.9999" x2="800" y2="845" gradientUnits="userSpaceOnUse">
<stop stop-color="#1724A9"/>
<stop offset="1" stop-color="#1724A9" stop-opacity="0"/>
</linearGradient>
</defs>
</svg>
