<svg width="170" height="29" fill="none" xmlns="http://www.w3.org/2000/svg"><path fill-rule="evenodd" clip-rule="evenodd" d="M26.011 5.18c.51.275.917.72 1.087 1.27l2.58 11.218a2.361 2.361 0 01-.407 1.647l-7.165 8.954c-.374.515-.95.79-1.562.72H9.134a2.462 2.462 0 01-1.562-.72L.407 19.315a2.182 2.182 0 01-.374-1.647L2.58 6.381a1.84 1.84 0 011.019-1.27L13.956.07C14.228 0 14.533 0 14.805 0s.577.034.849.172L26.01 5.18zm-.577 12.008c0 .034.034.034.068.034a.806.806 0 01.611.72.74.74 0 01-.68.481c-.067 0-.101 0-.169-.034-.034-.035-.034-.035-.068-.035a.22.22 0 01-.091-.021c-.017-.007-.03-.013-.045-.013-.1-.025-.182-.07-.274-.119l-.1-.053a.48.48 0 01-.203-.068h-.034a5.665 5.665 0 00-1.087-.309h-.034a.383.383 0 00-.271.103s0 .034-.034.034l-.272-.034c-.611 1.956-1.935 3.602-3.667 4.666l.102.274s-.034 0-.034.035a.41.41 0 00-.034.343c.136.343.305.686.543.995v.068c.068.069.102.103.136.172.102.103.17.206.238.343.034.034.067.068.067.103 0 0 .034 0 .034.034a.892.892 0 01.034.515.573.573 0 01-.305.377 2.775 2.775 0 00-.06.021.58.58 0 01-.212.048c-.272 0-.51-.172-.645-.412-.034 0-.034-.034-.034-.034-.017-.018-.026-.035-.034-.052-.009-.017-.017-.034-.034-.051-.068-.103-.102-.24-.136-.378l-.068-.206v-.034c-.102-.377-.271-.72-.441-1.063a.528.528 0 00-.272-.206c0-.017 0-.026-.004-.03-.004-.005-.013-.005-.03-.005l-.136-.24-.265.084a6.681 6.681 0 01-.821.225 6.731 6.731 0 01-1.834.24 7.924 7.924 0 01-2.955-.549l-.135.275c0 .017 0 .026-.005.03-.004.004-.012.004-.03.004a.529.529 0 00-.27.206c-.17.343-.34.686-.442 1.063l-.068.206a1.227 1.227 0 01-.068.189c-.026.06-.051.12-.068.189-.034.034-.068.068-.068.103-.034 0-.034.034-.034.034-.136.24-.373.412-.645.412a.625.625 0 01-.238-.069.71.71 0 01-.272-.926c.034 0 .034-.035.034-.035.017-.017.026-.034.034-.051a.18.18 0 01.034-.052c.045-.06.083-.12.118-.174.044-.07.082-.13.12-.169.068-.068.102-.102.136-.171v-.034c.204-.31.407-.652.543-.995a.41.41 0 00-.034-.343s-.034 0-.034-.035l.17-.24c-.34-.171-.611-.377-.917-.617a8.28 8.28 0 01-2.784-4.014l-.306.034s0-.034-.034-.034a.384.384 0 00-.272-.103h-.034a6.014 6.014 0 00-1.12.308H5.16c-.068 0-.136.035-.204.07-.038.012-.08.03-.126.048a1.88 1.88 0 01-.248.088c-.01 0-.026-.003-.044-.006-.042-.008-.091-.018-.091.006 0 .035 0 .035-.034.035-.068.034-.102.034-.17.034a.631.631 0 01-.68-.48.669.669 0 01.544-.79c.034-.034.034-.034.068-.034.04 0 .068-.011.091-.021.017-.007.03-.013.045-.013.068 0 .136-.009.204-.017.067-.009.135-.017.203-.017.068-.035.136-.035.204-.035a6.242 6.242 0 001.155-.205c.102-.07.203-.138.237-.24 0 0 .034 0 .034-.035l.272-.069c-.306-1.955.136-3.945 1.189-5.626a.756.756 0 01.05-.086.754.754 0 00.051-.086l-.197-.199c.016-.098-.046-.218-.108-.28-.272-.275-.611-.481-.951-.687L6.451 9.4a3.693 3.693 0 01-.373-.206c-.034 0-.102-.068-.102-.068s0-.035-.034-.035a.743.743 0 01-.136-.96c.102-.172.272-.24.475-.24.17 0 .34.068.476.171l.034.034c.017.018.034.026.05.035a.178.178 0 01.052.034c.05.052.093.103.136.154.042.052.084.103.135.155.01.01.024.02.039.032.033.026.073.057.097.105.238.275.543.549.85.79a.48.48 0 00.203.068.22.22 0 00.091-.022.12.12 0 01.045-.013h.034l.203.138c1.121-1.201 2.581-2.059 4.177-2.402l.175-.03c.34-.058.66-.112.98-.141l.034-.275v-.068c.102-.069.136-.172.17-.275 0-.412 0-.789-.068-1.166V5.18c0-.068 0-.137-.034-.205-.034-.138-.068-.275-.068-.412V4.39a.68.68 0 01.204-.48c.17-.172.373-.274.577-.24.34.034.611.377.577.72v.206c-.017.069-.025.137-.034.206a1.732 1.732 0 01-.034.206c0 .034-.008.068-.017.103a.434.434 0 00-.017.103v.034c-.068.412-.068.79-.068 1.166.034.103.068.206.17.275v-.034l.034.274c1.596.172 3.158.79 4.415 1.784.136.137.28.274.424.412.145.137.289.274.425.411l.271-.171h.034c.034.034.102.034.136.034.068 0 .136-.034.204-.068a4.48 4.48 0 00.849-.755c.01-.01.023-.021.038-.032a.312.312 0 00.098-.105c.068-.103.17-.206.271-.31.034 0 .068-.034.102-.068l.034-.034a.807.807 0 01.476-.172c.17 0 .373.103.475.24.238.31.17.721-.136.961 0 .013.005.021.01.028.006.011.011.02-.01.04-.017.018-.034.026-.05.035-.018.009-.035.017-.052.034-.068.035-.127.069-.187.103-.059.035-.118.069-.186.103l-.204.103c-.34.206-.645.412-.95.686-.069.069-.103.206-.103.309v.034l-.203.206c.543.858.95 1.818 1.188 2.813.204.995.272 2.024.136 3.02l.272.068a.412.412 0 00.237.24 6.79 6.79 0 001.155.206h.034a.427.427 0 00.204.034c.135 0 .271 0 .407.035.068 0 .136 0 .136.034zm-9.746-1.03l-.917.447-.917-.446-.238-.995.646-.824h1.018l.646.824-.238.995zm5.535-2.23c.17.721.204 1.442.136 2.162l-3.226-.926c-.306-.069-.476-.378-.408-.686a.554.554 0 01.136-.24l2.547-2.333c.374.617.645 1.303.815 2.024zm-1.834-3.293l-2.784 1.99c-.238.137-.578.103-.747-.137a.313.313 0 01-.102-.24l-.204-3.465a6.365 6.365 0 013.837 1.852zm-6.146-1.75l.679-.137-.17 3.431c0 .309-.271.549-.577.549-.08 0-.14-.021-.212-.047l-.06-.022-2.818-2.024c.883-.857 1.97-1.475 3.158-1.75zM9.1 11.906l2.513 2.264a.555.555 0 01.068.789c-.068.103-.136.137-.272.171l-3.294.961a7.281 7.281 0 01.985-4.185zm-.577 5.798l3.361-.584c.272 0 .544.172.578.446a.41.41 0 01-.034.343l-1.29 3.157a6.738 6.738 0 01-2.615-3.363zm7.708 4.254c-.475.102-.95.171-1.46.171-.713 0-1.46-.137-2.14-.343l1.665-3.053c.17-.206.441-.275.679-.137.102.068.17.137.271.24l1.63 2.984a5.467 5.467 0 00-.645.138zm4.143-2.985a6.518 6.518 0 01-2.037 2.058l-1.325-3.225a.56.56 0 01.306-.651.982.982 0 01.305-.069l3.396.583c-.17.48-.373.927-.645 1.304z" fill="#fff"/><path d="M164.527 21.442c.475.034.985-.034 1.426-.206a.765.765 0 00.408-.755c-.034-.343-.238-.651-.544-.754a7.277 7.277 0 00-1.664-.755 13.451 13.451 0 01-1.562-.686c-.441-.206-.815-.48-1.188-.824a3.257 3.257 0 01-.747-1.166c-.204-.515-.272-1.064-.272-1.612a3.577 3.577 0 011.358-2.917c.917-.72 2.14-1.063 3.702-1.063.747 0 1.528.069 2.275.24.577.103 1.155.24 1.732.446l-.645 2.916c-.476-.171-.917-.274-1.393-.412-.543-.137-1.12-.171-1.663-.171-1.155 0-1.732.309-1.732.96 0 .138.034.275.068.412.067.137.169.24.305.343.136.103.34.206.577.343.238.138.578.275.985.412.679.24 1.359.549 1.97.892.475.24.883.549 1.222.96.306.31.51.687.646 1.133.135.48.203.96.203 1.44a3.302 3.302 0 01-1.46 2.951c-.951.652-2.309.995-4.075.995a10.202 10.202 0 01-2.886-.309c-.544-.137-1.053-.309-1.562-.48l.611-3.02c.611.241 1.256.447 1.901.584.68.034 1.325.103 2.004.103zm-18.711-3.774c-.034-1.029.17-2.058.509-3.019.306-.823.781-1.544 1.393-2.195.577-.584 1.222-1.03 1.969-1.304a6.013 6.013 0 012.309-.446c1.834 0 3.294.583 4.347 1.715 1.053 1.132 1.596 2.813 1.596 5.01 0 .205 0 .445-.034.72 0 .274-.034.48-.034.686h-8.286c.068.72.442 1.406 1.053 1.818.747.48 1.63.72 2.513.686.645 0 1.324-.069 1.97-.171a6.688 6.688 0 001.596-.515l.509 3.019c-.238.137-.509.206-.781.309-.374.103-.747.206-1.121.24a53.02 53.02 0 01-1.29.206c-.442.034-.917.068-1.392.068a7.755 7.755 0 01-3.057-.514 5.972 5.972 0 01-2.139-1.407c-.577-.617-.985-1.372-1.256-2.161-.238-.927-.374-1.853-.374-2.745zm8.591-1.406c0-.31-.067-.618-.169-.927-.068-.308-.238-.549-.408-.789a2.328 2.328 0 00-.713-.583 2.258 2.258 0 00-1.053-.24c-.373 0-.713.068-1.052.24-.272.137-.544.309-.747.549-.204.24-.374.515-.476.823-.102.31-.17.618-.204.927h4.822zm-18.541-8.509l3.668-.583v3.843h4.414V14.1h-4.414v4.597a3.461 3.461 0 00.407 1.853c.272.446.815.686 1.664.686.408 0 .815-.034 1.189-.103a6.351 6.351 0 001.154-.308l.51 2.881c-.476.206-.985.343-1.494.48a9.699 9.699 0 01-2.004.206 6.087 6.087 0 01-2.479-.411 4.007 4.007 0 01-1.562-1.132c-.408-.515-.679-1.133-.849-1.784a8.773 8.773 0 01-.204-2.299V7.753zm-14.84 9.915c-.033-1.029.17-2.058.51-3.019.305-.823.781-1.544 1.392-2.195.577-.584 1.223-1.03 1.97-1.304a6.013 6.013 0 012.309-.446c1.834 0 3.294.583 4.347 1.715 1.052 1.132 1.596 2.813 1.596 5.01 0 .205 0 .445-.034.72-.034.274-.034.48-.034.686h-8.32c.068.72.441 1.406 1.053 1.818.747.48 1.63.72 2.512.686.646 0 1.325-.069 1.97-.171a7.466 7.466 0 001.63-.515l.509 3.019c-.237.137-.509.206-.781.309-.373.103-.747.206-1.12.24-.408.069-.815.137-1.291.206a17.97 17.97 0 01-1.392.068 7.75 7.75 0 01-3.056-.514 5.984 5.984 0 01-2.14-1.407c-.577-.617-.984-1.372-1.256-2.161-.272-.927-.407-1.853-.374-2.745zm8.592-1.406c0-.31-.068-.618-.17-.927-.068-.308-.238-.549-.407-.789a2.332 2.332 0 00-.714-.583 2.254 2.254 0 00-1.052-.24c-.374 0-.713.068-1.053.24a2.217 2.217 0 00-.713.549c-.204.24-.374.515-.475.823-.102.31-.17.618-.204.927h4.788zm-22.514-4.803a27.322 27.322 0 012.411-.515 18.75 18.75 0 013.09-.24c.917-.035 1.834.137 2.716.446a3.87 3.87 0 011.732 1.2c.442.55.747 1.201.917 1.888.204.789.272 1.612.272 2.435v7.376h-3.634v-6.895c0-1.201-.169-2.024-.475-2.54-.306-.48-.883-.754-1.732-.754-.272 0-.543 0-.849.034-.306 0-.543.035-.781.069v10.086h-3.667V11.46zm-2.581 2.847c-.34-.068-.713-.171-1.155-.24a6.692 6.692 0 00-1.426-.137c-.272 0-.543.034-.849.068a5.24 5.24 0 00-.713.138v9.983h-3.668v-12.42a17.75 17.75 0 012.31-.651c.984-.24 2.003-.343 2.988-.309.238 0 .475.035.713.035.272 0 .543.034.849.102.272.035.543.069.849.138.238.034.475.103.713.206l-.611 3.087zm-22.786 3.362c-.034-1.029.17-2.058.51-3.019.305-.823.78-1.544 1.391-2.195.578-.584 1.223-1.03 1.97-1.304a6.014 6.014 0 012.31-.446c1.833 0 3.293.583 4.346 1.715 1.053 1.132 1.596 2.813 1.596 4.975 0 .206 0 .446-.034.72-.034.275-.034.48-.034.686h-8.32c.068.72.442 1.407 1.053 1.819.747.48 1.63.72 2.513.686.645 0 1.324-.069 1.97-.172a8.561 8.561 0 001.595-.48l.51 3.019c-.238.137-.51.206-.781.309-.374.103-.747.206-1.12.24-.408.069-.816.137-1.291.206a17.98 17.98 0 01-1.393.068 7.752 7.752 0 01-3.056-.514 5.975 5.975 0 01-2.14-1.407c-.576-.617-.984-1.372-1.256-2.161-.203-.927-.34-1.819-.34-2.745zm8.625-1.406c0-.31-.068-.618-.17-.927-.068-.308-.237-.549-.407-.789a2.328 2.328 0 00-.713-.583c-.34-.171-.68-.24-1.053-.24-.374 0-.713.068-1.053.24-.271.137-.543.309-.747.549-.203.24-.373.515-.475.823-.102.31-.17.618-.204.927h4.822zm-14.568 1.2c0-2.401-.883-3.568-2.615-3.568-.373 0-.747.035-1.12.138a2.867 2.867 0 00-.883.377v6.724c.17.035.407.069.679.103.271.034.577.034.917.034a2.581 2.581 0 002.275-1.029c.51-.823.781-1.784.747-2.779zm3.735.138c0 .96-.135 1.92-.475 2.847a5.809 5.809 0 01-1.29 2.162 6.154 6.154 0 01-2.106 1.406c-.917.343-1.868.48-2.852.48-.442 0-.917-.034-1.393-.068-.475-.035-.95-.103-1.426-.137a17.89 17.89 0 01-1.324-.24 4.405 4.405 0 01-1.12-.31V5.387l3.667-.583v6.518a8.083 8.083 0 011.29-.411 6.7 6.7 0 011.426-.137c.85 0 1.664.137 2.445.514a4.94 4.94 0 011.766 1.372 5.89 5.89 0 011.087 2.162c.204.857.305 1.818.305 2.779zm-15.484 6.038c-.782.205-1.597.377-2.412.48a18.76 18.76 0 01-3.09.24c-.95.034-1.867-.137-2.75-.446a4.476 4.476 0 01-1.732-1.235 5.17 5.17 0 01-.917-1.955c-.204-.79-.272-1.647-.272-2.47v-7.24h3.668v6.828c0 1.2.17 2.058.475 2.573.306.514.883.789 1.732.789.272 0 .543 0 .849-.034.306-.035.543-.035.781-.103V11.013h3.667v12.625zM42.65 15.747c.373-.412.713-.823 1.12-1.235.374-.446.747-.858 1.121-1.27.373-.445.713-.823 1.019-1.2.305-.377.611-.72.849-.995h4.346c-.883.995-1.732 1.99-2.547 2.916-.848.926-1.731 1.887-2.716 2.848.543.514 1.052 1.029 1.528 1.612.51.618 1.019 1.235 1.528 1.921.475.652.95 1.338 1.358 1.99.408.652.748 1.27 1.02 1.818h-4.212c-.271-.446-.577-.892-.917-1.406-.34-.515-.713-1.03-1.052-1.578a16.898 16.898 0 00-1.223-1.51 8.106 8.106 0 00-1.222-1.2v5.729h-3.668v-18.8l3.668-.584v10.944z" fill="#fff"/></svg>