<svg width="82" height="55" fill="none" xmlns="http://www.w3.org/2000/svg"><path fill-rule="evenodd" clip-rule="evenodd" d="M55.374 5.548c-.385 0-.674.048-.915.097v.048h.048c.193.338.482.627.723.917.193.337.337.723.53 1.06l.048-.047c.337-.242.482-.58.482-1.11-.145-.145-.145-.338-.29-.482-.192-.193-.481-.338-.626-.483z" fill="#fff"/><path d="M19.47 50.127h-3.132c-.097-5.307-.386-10.276-.916-14.908L10.65 50.127H8.289L3.52 35.22a256.468 256.468 0 00-.676 14.908H0c.193-6.658.627-12.882 1.398-18.67h3.855l4.53 13.75h.048l4.53-13.75h3.712c.77 6.754 1.253 13.025 1.397 18.67zM33.013 36.329c-1.253 6.9-2.94 11.917-5.012 15.053C26.36 53.794 24.578 55 22.65 55c-.53 0-1.157-.145-1.928-.482v-1.689c.386.048.82.096 1.302.096.915 0 1.638-.24 2.168-.771.675-.628 1.012-1.303 1.012-2.027 0-.53-.24-1.592-.77-3.184l-3.423-10.662h3.085l2.458 7.96c.53 1.834.77 3.088.674 3.812 1.35-3.619 2.265-7.527 2.844-11.772h2.94v.048zM74.604 50.127h-8.868V31.408h2.988v16.404h5.88v2.315z" fill="#fff"/><path fill-rule="evenodd" clip-rule="evenodd" d="M63.423 50.562L60 48.872c.29-.24.578-.53.868-.82 1.445-1.736 2.168-4.245 2.168-7.622 0-6.175-2.41-9.263-7.277-9.263-2.361 0-4.241.772-5.542 2.364-1.446 1.737-2.169 4.245-2.169 7.574 0 3.281.627 5.693 1.928 7.237 1.157 1.4 2.94 2.075 5.35 2.075.867 0 1.686-.097 2.457-.338l4.482 2.605 1.157-2.122zM52.29 46.364c-.771-1.206-1.157-3.184-1.157-5.886 0-4.728 1.446-7.044 4.29-7.044 1.494 0 2.602.58 3.277 1.689.771 1.206 1.156 3.136 1.156 5.838 0 4.728-1.445 7.14-4.289 7.14-1.494-.048-2.554-.627-3.277-1.737z" fill="#fff"/><path d="M46.7 44.917c0 1.592-.579 2.895-1.735 3.908-1.157 1.013-2.7 1.543-4.675 1.543-1.831 0-3.615-.578-5.301-1.736l.819-1.592c1.494.723 2.795 1.11 4 1.11 1.108 0 2.024-.242 2.65-.724a2.561 2.561 0 001.013-2.075c0-1.11-.771-2.075-2.17-2.846-1.3-.724-3.903-2.22-3.903-2.22-1.494-1.11-2.217-2.22-2.217-4.052 0-1.496.53-2.75 1.59-3.667 1.06-.917 2.41-1.4 4.097-1.4a8.48 8.48 0 014.723 1.4l-.723 1.592a8.867 8.867 0 00-3.614-.772c-.964 0-1.687.241-2.217.675-.53.483-.82 1.062-.82 1.786 0 1.11.772 2.074 2.266 2.894 1.349.724 4 2.268 4 2.268 1.494 1.013 2.217 2.123 2.217 3.908z" fill="#fff"/><path fill-rule="evenodd" clip-rule="evenodd" d="M78.363 25.136c-1.783-.048-3.18.145-4.386.627-.337.145-.867.145-.915.58.192.192.192.482.385.723.29.434.723 1.061 1.157 1.399.482.338.964.724 1.446 1.061.867.531 1.88.869 2.747 1.4.482.337 1.012.723 1.494 1.06.24.194.385.483.722.58v-.049c-.144-.193-.192-.482-.337-.723l-.675-.676c-.674-.868-1.445-1.64-2.361-2.267-.723-.483-2.313-1.158-2.603-2.026l-.048-.049c.482-.048 1.06-.24 1.542-.386.772-.193 1.446-.144 2.266-.337a9.716 9.716 0 001.108-.338v-.193c-.386-.386-.723-.965-1.108-1.351a29.902 29.902 0 00-3.711-2.798c-.723-.434-1.59-.724-2.362-1.11-.289-.145-.723-.193-.867-.434-.386-.483-.627-1.158-.916-1.737a41.039 41.039 0 01-1.831-3.908c-.386-.868-.675-1.737-1.157-2.557-2.313-3.86-4.867-6.175-8.723-8.443-.82-.482-1.831-.675-2.892-.917-.578 0-1.108-.048-1.686-.096-.386-.145-.723-.579-1.06-.772-1.302-.82-4.579-2.557-5.543-.241-.626 1.447.916 2.895 1.398 3.667.385.53.867 1.11 1.156 1.688.145.386.193.772.386 1.206.337 1.013.675 2.123 1.157 3.04.24.482.53.965.819 1.399.193.241.482.338.578.772-.337.434-.337 1.11-.53 1.688-.82 2.557-.482 5.693.675 7.575.337.579 1.205 1.785 2.361 1.35 1.012-.385.771-1.688 1.06-2.797.049-.29 0-.435.145-.628v.049c.337.627.627 1.254.916 1.881.723 1.11 1.927 2.268 2.94 3.04.53.386.963 1.11 1.638 1.35v-.048h-.096c-.145-.193-.338-.29-.53-.434-.386-.386-.868-.917-1.157-1.35-.964-1.255-1.783-2.654-2.506-4.102-.386-.723-.675-1.447-.964-2.17-.145-.29-.145-.676-.337-.82-.338.482-.82.916-1.06 1.543-.434.965-.483 2.171-.627 3.425-.096 0-.048 0-.096.049-.723-.193-.964-.917-1.254-1.544-.674-1.592-.77-4.198-.192-6.03.144-.483.819-1.979.578-2.413-.145-.434-.578-.676-.82-1.013-.288-.435-.626-.965-.819-1.448-.53-1.254-.819-2.653-1.397-3.908-.29-.579-.723-1.206-1.109-1.736-.433-.628-.915-1.062-1.253-1.737-.096-.242-.289-.676-.096-.917.048-.193.145-.241.337-.29.29-.24 1.109.049 1.398.194.82.337 1.542.675 2.217 1.11.337.24.675.675 1.06.771h.482c.723.145 1.542.048 2.217.241 1.205.386 2.265.965 3.229 1.544a20.117 20.117 0 017.036 7.72c.29.53.386 1.013.627 1.543.482 1.11 1.06 2.22 1.542 3.33.482 1.06.916 2.122 1.59 3.039.338.482 1.687.724 2.314.965.433.193 1.156.386 1.542.627a37.41 37.41 0 012.265 1.544c.289 0 1.446.579 1.494 1.013z" fill="#fff"/><path d="M80.531 50.127h.482V47.86h-.722l-.579 1.544-.626-1.544h-.675v2.267h.434v-1.736h.048l.675 1.736h.337l.626-1.736v1.736zm-3.807 0h.482v-1.93h.627v-.386H76v.386h.675v1.93h.048z" fill="#fff"/></svg>