<svg width="108" height="40" fill="none" xmlns="http://www.w3.org/2000/svg"><path d="M22.193 23.527a3.58 3.58 0 100-7.161 3.58 3.58 0 000 7.161z" fill="#fff"/><path fill-rule="evenodd" clip-rule="evenodd" d="M28.647 4.208c-1.256.462-2.747 1.376-4.313 2.739-2.6 2.262-5.371 5.706-7.737 9.808-2.39 4.144-4.023 8.37-4.669 11.77l-.84-.16.84.16c-.382 2.011-.41 3.717-.17 5 .244 1.308.734 2.03 1.244 2.323.53.307 1.468.37 2.812-.105 1.314-.464 2.87-1.396 4.488-2.81l.564.644-.564-.645c2.553-2.23 5.174-5.713 7.486-9.723 2.25-3.902 3.879-7.854 4.555-11.136.449-2.177.51-4.044.274-5.451-.24-1.44-.757-2.232-1.295-2.542l.428-.742-.428.742c-.507-.292-1.389-.345-2.675.128zm-.59-1.608c1.478-.543 2.966-.67 4.12-.004 1.194.688 1.856 2.103 2.13 3.743.28 1.673.191 3.761-.286 6.08-.724 3.515-2.44 7.641-4.749 11.646-2.362 4.096-5.094 7.755-7.842 10.157-1.735 1.517-3.476 2.581-5.046 3.136-1.54.544-3.072.647-4.238-.026-1.138-.656-1.787-1.966-2.072-3.492-.29-1.552-.237-3.483.171-5.634.69-3.632 2.407-8.04 4.868-12.306l.742.427-.742-.428c2.438-4.227 5.323-7.83 8.097-10.244l.562.646-.562-.646c1.67-1.455 3.338-2.5 4.846-3.055z" fill="#fff"/><path fill-rule="evenodd" clip-rule="evenodd" d="M15.824 4.278c-1.368-.51-2.312-.458-2.849-.147-.506.293-.992 1.031-1.225 2.381-.227 1.32-.18 3.068.219 5.105.661 3.382 2.261 7.503 4.633 11.601 2.397 4.14 5.242 7.666 7.866 9.924 1.551 1.334 3.015 2.21 4.247 2.644 1.255.441 2.124.378 2.633.083.531-.308 1.053-1.088 1.313-2.49.254-1.37.225-3.183-.193-5.292l.84-.166-.84.166c-.658-3.325-2.366-7.335-4.685-11.341l.74-.43-.74.43c-2.257-3.898-4.868-7.283-7.374-9.508-1.662-1.476-3.248-2.461-4.585-2.96zm5.723 1.68c-1.77-1.572-3.535-2.692-5.124-3.285-1.558-.581-3.114-.714-4.306-.024-1.153.667-1.788 2.02-2.055 3.572-.273 1.583-.2 3.55.226 5.725.705 3.608 2.387 7.907 4.832 12.13l.741-.428-.741.429c2.468 4.263 5.428 7.951 8.23 10.363 1.66 1.428 3.307 2.438 4.796 2.962 1.465.515 2.924.607 4.06-.05 1.166-.675 1.841-2.054 2.14-3.66.303-1.637.25-3.677-.197-5.937-.709-3.58-2.515-7.775-4.884-11.867-2.316-4.001-5.035-7.548-7.718-9.93zm-11.26 5.988l.841-.165-.84.165z" fill="#fff"/><path fill-rule="evenodd" clip-rule="evenodd" d="M5.413 17.628c-1.129.926-1.557 1.768-1.558 2.39-.002.584.392 1.375 1.442 2.255 1.027.86 2.562 1.697 4.523 2.376 3.257 1.127 7.624 1.816 12.36 1.824 4.782.008 9.26-.68 12.531-1.814 1.934-.67 3.427-1.496 4.42-2.343 1.013-.863 1.395-1.646 1.396-2.235 0-.613-.412-1.457-1.493-2.386-1.056-.908-2.64-1.794-4.672-2.493l.278-.81-.278.81c-3.206-1.102-7.531-1.64-12.16-1.648l.001-.857-.001.857c-4.505-.008-8.743.548-11.926 1.597-2.11.695-3.76 1.572-4.863 2.477zm4.328-4.104c-2.248.74-4.103 1.704-5.414 2.78-1.286 1.054-2.183 2.333-2.185 3.71-.003 1.333.847 2.56 2.055 3.572 1.232 1.031 2.97 1.957 5.063 2.681 3.474 1.203 8.037 1.91 12.916 1.919l.002-.857-.002.857c4.926.008 9.603-.697 13.096-1.908 2.07-.718 3.77-1.634 4.97-2.658 1.183-1.008 1.995-2.223 1.998-3.536.002-1.346-.85-2.624-2.09-3.688-1.262-1.085-3.052-2.065-5.231-2.814-3.452-1.186-7.985-1.733-12.714-1.74-4.623-.009-9.056.559-12.464 1.682zm-.48 12.743l.28-.809-.28.81zM61.94 29.095l-4.388-6.63c2.218-.195 4.217-1.804 4.217-4.73 0-2.997-2.121-4.899-5.095-4.899h-6.532v16.259h2.023v-6.46h3.242l4.144 6.46h2.388zm-5.51-8.24h-4.265V14.64h4.266c1.925 0 3.241 1.268 3.241 3.096s-1.316 3.12-3.241 3.12zm13.041 8.532c1.926 0 3.51-.634 4.68-1.804l-.877-1.194c-.926.95-2.291 1.487-3.632 1.487-2.535 0-4.095-1.853-4.241-4.07h9.53v-.464c0-3.534-2.096-6.313-5.655-6.313-3.363 0-5.801 2.754-5.801 6.167 0 3.68 2.51 6.191 5.996 6.191zm3.657-6.922H65.4c.097-1.804 1.34-3.925 3.851-3.925 2.681 0 3.851 2.17 3.876 3.925zm13.942 6.63v-8.093c0-2.852-2.071-3.973-4.558-3.973-1.925 0-3.437.634-4.704 1.95l.853 1.267c1.048-1.12 2.194-1.633 3.608-1.633 1.706 0 2.973.902 2.973 2.486v2.121c-.95-1.097-2.291-1.609-3.9-1.609-1.998 0-4.12 1.244-4.12 3.876 0 2.56 2.122 3.9 4.12 3.9 1.585 0 2.925-.56 3.9-1.633v1.34h1.828zM82 28.07c-1.706 0-2.9-1.073-2.9-2.56 0-1.51 1.194-2.583 2.9-2.583 1.292 0 2.535.487 3.242 1.462v2.218c-.707.975-1.95 1.463-3.242 1.463zm13.919 1.316c2.145 0 3.412-.877 4.314-2.047l-1.219-1.122c-.78 1.049-1.779 1.536-2.998 1.536-2.51 0-4.07-1.95-4.07-4.558 0-2.608 1.56-4.534 4.07-4.534 1.22 0 2.218.463 2.998 1.536l1.219-1.122c-.902-1.17-2.17-2.047-4.314-2.047-3.51 0-5.875 2.681-5.875 6.167 0 3.51 2.365 6.191 5.875 6.191zm9.847 0c1.073 0 1.731-.317 2.194-.756l-.536-1.364c-.244.268-.731.487-1.243.487-.805 0-1.195-.634-1.195-1.511V18.93h2.389v-1.609h-2.389v-3.217h-1.828v3.217h-1.95v1.61h1.95v7.702c0 1.755.878 2.754 2.608 2.754z" fill="#fff"/></svg>