<svg width="112" height="36" fill="none" xmlns="http://www.w3.org/2000/svg"><path d="M61.205 11.15c0 .893-.727 1.69-1.675 1.69-.727 0-1.358.192-1.896.607-.6.383-1.074.926-1.453 1.532-.758 1.021-1.137 2.233-1.295 2.68v6.063c0 .925-.79 1.691-1.738 1.691-.917 0-1.675-.766-1.675-1.691V11.15c0-.926.758-1.66 1.675-1.66.948 0 1.738.734 1.738 1.66v.223c.19-.223.442-.478.663-.638 1.043-.702 2.401-1.277 3.981-1.245.948 0 1.675.734 1.675 1.66zM60.277 17.436c.032-4.34 3.381-7.977 7.71-7.977 4.108 0 7.362 3.095 7.615 7.402v.16c0 .063 0 .223-.031.287-.095.766-.759 1.276-1.644 1.276H63.88c.158.734.506 1.564 1.075 2.106.664.766 1.927 1.34 3.033 1.436 1.138.095 2.496-.192 3.286-.798.664-.702 1.96-.606 2.37-.096.41.447.727 1.405 0 2.074-1.548 1.436-3.412 2.106-5.656 2.106-4.328-.031-7.678-3.637-7.71-7.976zm3.445-1.564h8.942c-.316-1.276-1.928-3.159-4.677-3.382-2.685.127-4.013 2.074-4.265 3.382zM91.701 23.69c0 .925-.758 1.723-1.706 1.723a1.706 1.706 0 01-1.675-1.372c-1.2.83-2.717 1.372-4.297 1.372-4.266 0-7.678-3.638-7.678-7.945 0-4.372 3.412-8.01 7.678-8.01 1.548 0 3.065.51 4.234 1.34V4.8c0-.926.758-1.723 1.738-1.723.948 0 1.706.797 1.706 1.723v18.89zm-7.678-10.754c-1.137 0-2.18.48-2.97 1.309-.79.798-1.264 1.946-1.264 3.223 0 1.212.474 2.36 1.264 3.158.79.83 1.833 1.309 2.97 1.309 1.17 0 2.18-.479 2.97-1.309.79-.797 1.264-1.946 1.264-3.159 0-1.276-.474-2.424-1.264-3.222-.79-.83-1.8-1.308-2.97-1.308zM97.713 5.47c0 .957-.727 1.755-1.706 1.755-.949 0-1.707-.798-1.707-1.755V4.8c0-.957.758-1.723 1.707-1.723.98 0 1.706.766 1.706 1.723v.67zm0 5.775V23.69c0 .957-.727 1.723-1.706 1.723A1.708 1.708 0 0194.3 23.69V11.245c0-1.02.758-1.755 1.707-1.755.98 0 1.706.734 1.706 1.755zM99.885 20.85a1.633 1.633 0 012.37-.255c.822.702 2.244 1.435 3.476 1.404.853 0 1.643-.287 2.149-.607.442-.383.568-.701.568-.957a.477.477 0 00-.095-.32c-.031-.095-.157-.222-.411-.382-.442-.319-1.39-.67-2.527-.893h-.032c-.98-.192-1.928-.447-2.749-.83-.853-.415-1.612-.989-2.18-1.85a3.893 3.893 0 01-.537-2.01c0-1.469.821-2.713 1.864-3.51 1.106-.766 2.433-1.181 3.887-1.181 2.18 0 3.728 1.053 4.739 1.755.759.51.98 1.563.506 2.36a1.662 1.662 0 01-2.338.447c-1.011-.67-1.896-1.18-2.907-1.18-.79 0-1.485.255-1.896.574-.411.288-.506.575-.506.734 0 .128 0 .16.063.255.032.064.127.192.348.32.411.286 1.233.574 2.307.765l.031.032h.032c1.043.191 2.023.479 2.939.925.853.383 1.706.99 2.243 1.883.38.638.601 1.372.601 2.106 0 1.563-.853 2.872-1.991 3.701a7.144 7.144 0 01-4.108 1.277c-2.464-.032-4.36-1.18-5.624-2.202-.696-.574-.79-1.66-.222-2.361z" fill="#fff"/><path d="M39.965 27.759c-2.22 1.168-13.719 5.943-16.167 7.231-2.448 1.29-3.808 1.277-5.741.343-1.934-.933-14.171-5.925-16.375-6.989C.58 27.812 0 27.364 0 26.94v-4.246s15.931-3.502 18.503-4.434c2.572-.932 3.464-.965 5.653-.156 2.189.81 15.276 3.195 17.439 3.995l-.001 4.185c0 .42-.499.88-1.629 1.475z" fill="#485062"/><path d="M39.965 23.512c-2.22 1.168-13.718 5.943-16.167 7.232-2.448 1.289-3.808 1.276-5.741.343-1.934-.933-14.171-5.926-16.375-6.99-2.205-1.063-2.25-1.796-.086-2.652 2.166-.856 14.335-5.678 16.908-6.61 2.571-.931 3.464-.965 5.652-.155 2.19.81 13.62 5.404 15.782 6.204 2.164.8 2.247 1.46.027 2.628z" fill="#fff"/><path d="M39.965 20.836c-2.22 1.168-13.719 5.943-16.167 7.232-2.448 1.288-3.808 1.276-5.741.342-1.934-.933-14.171-5.925-16.375-6.989C.58 20.89 0 20.441 0 20.017v-4.246s15.931-3.502 18.503-4.434c2.572-.932 3.464-.965 5.653-.156 2.189.81 15.276 3.194 17.439 3.994l-.001 4.186c0 .42-.499.88-1.629 1.475z" fill="#485062"/><path d="M39.965 16.589c-2.22 1.168-13.718 5.943-16.167 7.232-2.448 1.288-3.808 1.276-5.741.342-1.934-.933-14.171-5.925-16.375-6.989-2.205-1.063-2.25-1.796-.086-2.652 2.166-.856 14.335-5.678 16.908-6.61 2.571-.931 3.464-.965 5.652-.156 2.19.81 13.62 5.404 15.782 6.204 2.164.801 2.247 1.46.027 2.629z" fill="#fff"/><path d="M39.965 13.656c-2.22 1.168-13.719 5.943-16.167 7.232-2.448 1.289-3.808 1.276-5.741.343-1.934-.933-14.171-5.926-16.375-6.99C.58 13.71 0 13.262 0 12.839V8.592S15.931 5.09 18.503 4.158c2.572-.932 3.464-.966 5.653-.156 2.189.81 15.276 3.194 17.439 3.994l-.001 4.186c0 .419-.499.88-1.629 1.474z" fill="#485062"/><path d="M39.965 9.41c-2.22 1.168-13.718 5.942-16.167 7.231-2.448 1.289-3.808 1.276-5.741.343-1.934-.933-14.171-5.925-16.375-6.989-2.205-1.064-2.25-1.796-.086-2.653 2.166-.856 14.335-5.677 16.908-6.61 2.571-.931 3.464-.965 5.652-.155 2.19.81 13.62 5.404 15.782 6.204 2.164.8 2.247 1.46.027 2.628z" fill="#fff"/><path d="M22.644 5.697l-.808 1.962-1.304-2.188-4.162-.378 3.106-1.131-.932-1.736 2.907 1.149 2.743-.906-.743 1.794 2.795 1.057-3.602.377zM14.893 12.015l9.639-1.495-2.91 4.312-6.729-2.817zM12.296 10.443c2.845 0 5.151-.903 5.151-2.016 0-1.114-2.306-2.017-5.151-2.017-2.846 0-5.152.903-5.152 2.017 0 1.113 2.306 2.016 5.152 2.016z" fill="#485062"/><path d="M36.211 8.134l-5.7 2.272-.004-4.55 5.704 2.278z" fill="#222B41"/><path d="M30.507 5.855l.004 4.551-.618.246-5.697-2.276 6.311-2.52z" fill="#485062"/></svg>