<svg width="118" height="48" fill="none" xmlns="http://www.w3.org/2000/svg"><path opacity=".3" fill-rule="evenodd" clip-rule="evenodd" d="M28.52 34.998L7.309 38.44l27.115 7.037 10.77-26.228-2.26 4.102L28.52 34.998z" fill="#fff"/><path opacity=".3" fill-rule="evenodd" clip-rule="evenodd" d="M7.444 38.494l8.639-12.368-9.83-1.088 1.191 13.456zM28.436 35.106l.992-15.253-13.335 6.153 12.343 9.1zM42.895 23.351L35.279 11.36l-5.94 8.438 13.556 3.554zM41.806 10.15l-6.384 1.143L32.4 7.016l9.406 3.134z" fill="#fff"/><path opacity=".3" fill-rule="evenodd" clip-rule="evenodd" d="M2.358 28.857l3.936-3.761-.54-4.224-3.396 7.985z" fill="#fff"/><path fill-rule="evenodd" clip-rule="evenodd" d="M16.888 10.217C23.942 6.678 31.832 5.83 33.6 9.385c1.768 3.556-3.136 9.129-10.19 12.666-7.054 3.537-14.915 4.588-16.683 1.032-1.77-3.554 3.106-9.328 10.16-12.866zM34.474 45.514l2.779-16.346-4.25 2.901-4.599 3.052 6.07 10.393z" fill="#fff"/><path fill-rule="evenodd" clip-rule="evenodd" d="M34.505 45.525l-16.276-6.89s-1.84.086-5.455.092c-3.615.006-5.364-.25-5.364-.25l27.095 7.048z" fill="#fff"/><path fill-rule="evenodd" clip-rule="evenodd" d="M7.434 38.483l8.614-12.416 12.356 9.054c-4.676 2.01-6.78 2.62-10.175 3.513-3.533.357-6.032.35-10.795-.151z" fill="#fff"/><path fill-rule="evenodd" clip-rule="evenodd" d="M29.436 19.877l-1.032 15.244c3.863-2.572 10.561-5.986 14.556-11.72l-13.524-3.524z" fill="#fff"/><path fill-rule="evenodd" clip-rule="evenodd" d="M42.901 23.46c2.804-3.818 5.125-9.862-1.166-13.227l-6.45 1.214L42.9 23.46zM2.35 28.785c-2.1 7.144 2.942 8.943 5.085 9.726L6.245 25.11 2.35 28.785zM29.448 19.906c2.552 3.037 7.698 9.145 7.805 9.262-.686-.374 4.187-3.436 5.59-5.77l-13.395-3.492z" fill="#fff"/><path fill-rule="evenodd" clip-rule="evenodd" d="M6.22 25.116L2.387 34.25c.82 2.527 2.799 3.383 4.986 3.937-.29-4.384-.869-13.148-1.155-13.07zM35.244 11.46l10.492 5.22c.225-2.697-1.054-4.913-3.962-6.442l-6.53 1.222z" fill="#fff"/><path d="M57.997 27.337h1.338c1.311 0 2.28-.22 2.904-.662.624-.441.936-1.135.936-2.08 0-.938-.321-1.604-.963-2-.634-.397-1.62-.595-2.957-.595h-1.258v5.337zm0 3.406v7.58H53.85V18.568h5.7c2.657 0 4.624.491 5.9 1.473 1.275.973 1.913 2.455 1.913 4.446 0 1.162-.317 2.198-.95 3.108-.633.901-1.53 1.608-2.69 2.122l5.754 8.608h-4.603l-4.67-7.581h-2.207zM81.391 38.324l-.548-1.932h-.214c-.437.702-1.057 1.247-1.86 1.635-.803.378-1.717.567-2.743.567-1.757 0-3.081-.473-3.973-1.419-.892-.955-1.338-2.324-1.338-4.108v-9.851h4.08v8.824c0 1.09.192 1.91.576 2.46.383.54.994.81 1.833.81 1.142 0 1.967-.383 2.475-1.148.508-.775.763-2.054.763-3.838v-7.108h4.08v15.108h-3.13zM96.303 22.932c1.767 0 3.149.698 4.148 2.095.999 1.387 1.498 3.293 1.498 5.716 0 2.495-.517 4.428-1.552 5.797-1.025 1.37-2.426 2.054-4.2 2.054-1.758 0-3.136-.644-4.135-1.932h-.28l-.683 1.662h-3.117V17.297h4.08v4.892c0 .622-.053 1.617-.16 2.986h.16c.955-1.495 2.368-2.243 4.241-2.243zm-1.31 3.297c-1.009 0-1.744.316-2.208.946-.464.622-.705 1.653-.723 3.095v.446c0 1.621.237 2.784.71 3.486.481.703 1.24 1.054 2.274 1.054.838 0 1.503-.387 1.993-1.162.5-.784.75-1.919.75-3.405 0-1.487-.25-2.6-.75-3.338-.5-.748-1.181-1.122-2.047-1.122zM102.091 23.216h4.468l2.823 8.5c.241.739.406 1.612.495 2.621h.081a11.7 11.7 0 01.575-2.621l2.769-8.5h4.375l-6.328 17.04c-.58 1.577-1.409 2.757-2.488 3.54-1.071.785-2.324 1.176-3.76 1.176a9.384 9.384 0 01-2.074-.23v-3.27a6.916 6.916 0 001.606.176c.722 0 1.351-.225 1.886-.676.544-.44.968-1.112 1.271-2.013l.241-.743-5.94-15z" fill="#fff"/></svg>